<?xml version="1.0" encoding="utf-8"?>
<!-- Generator: Adobe Illustrator 28.4.1, SVG Export Plug-In . SVG Version: 6.00 Build 0)  -->
<svg version="1.1" id="Layer_1" xmlns="http://www.w3.org/2000/svg" xmlns:xlink="http://www.w3.org/1999/xlink" x="0px" y="0px"
	 viewBox="0 0 283.5 386.2" style="enable-background:new 0 0 283.5 386.2;" xml:space="preserve">
<style type="text/css">
	.st0{fill:#36B981;}
	.st1{fill:#062641;}
</style>
<g>
	<g>
		<path class="st0" d="M636.3,340.4h-3.5v-33.9h3.5V340.4z"/>
		<path class="st0" d="M646,315.5h2.8l0.4,3.7h0.2c1.4-1.4,2.8-2.5,4.2-3.2c1.4-0.7,2.9-1.1,4.5-1.1c2.5,0,4.4,0.8,5.6,2.3
			c1.2,1.6,1.8,4,1.8,7.3v15.9h-3.4V325c0-2.5-0.4-4.4-1.2-5.5s-2.2-1.8-4-1.8c-1.3,0-2.5,0.3-3.6,1c-1,0.6-2.4,1.7-3.9,3.3v18.4
			H646V315.5z"/>
		<path class="st0" d="M671.1,315.5h3.4l5,14.5l2.7,7.7h0.1c0.1-0.1,0.2-0.5,0.4-1.2c0.3-1,0.7-2.1,1.1-3.3c0.4-1.2,0.8-2.3,1.1-3.1
			l5-14.6h3.3l-8.9,24.9h-4.2L671.1,315.5z"/>
		<path class="st0" d="M702.7,339.3c-1.8-1.1-3.2-2.7-4.2-4.7c-1-2-1.5-4.2-1.5-6.7c0-2.4,0.5-4.6,1.4-6.6s2.3-3.6,4-4.8
			c1.7-1.2,3.6-1.7,5.7-1.7c3.2,0,5.7,1.1,7.3,3.2c1.7,2.1,2.5,4.9,2.5,8.4c0,0.9,0,1.6,0,2.1h-17.5c0.1,3,0.9,5.3,2.6,7.1
			c1.6,1.8,3.7,2.7,6.4,2.7c1.1,0,2.2-0.1,3.2-0.5c1-0.3,2.1-0.8,3.2-1.5l1.1,2.1c-1.2,0.7-2.5,1.3-3.8,1.8
			c-1.3,0.4-2.7,0.7-4.2,0.7C706.6,341,704.5,340.4,702.7,339.3z M713.3,319.7c-1.2-1.5-2.9-2.3-5.1-2.3c-2.2,0-4.1,0.9-5.5,2.6
			c-1.4,1.7-2.2,3.8-2.4,6.3H715C715,323.4,714.5,321.2,713.3,319.7z"/>
		<path class="st0" d="M726.5,340.1c-1.6-0.6-3-1.4-4.3-2.4l1.7-2.2c1.2,1,2.4,1.7,3.6,2.2c1.2,0.5,2.5,0.7,4,0.7c1.6,0,3-0.4,4-1.2
			c1-0.8,1.5-1.9,1.5-3.3c0-1.3-0.6-2.4-1.7-3.3c-0.9-0.6-2.2-1.2-4.1-1.8c-2.7-0.9-4.7-1.9-5.9-3c-1.2-1.1-1.8-2.5-1.8-4.1
			c0-2,0.8-3.7,2.3-5c1.5-1.3,3.5-1.9,6-1.9c1.3,0,2.6,0.2,3.9,0.7c1.3,0.5,2.5,1.1,3.5,1.9l-1.6,2.1c-1-0.8-2-1.3-2.9-1.7
			c-0.9-0.3-1.9-0.5-2.9-0.5c-1.5,0-2.7,0.4-3.7,1.1c-0.9,0.8-1.4,1.8-1.4,3c0,0.8,0.2,1.4,0.7,2c0.4,0.5,1,1,1.7,1.3
			c0.7,0.3,1.6,0.7,2.9,1.2l1,0.4c1.1,0.4,2.1,0.8,2.9,1.1c0.8,0.4,1.5,0.8,2.1,1.3c1.6,1.3,2.4,2.9,2.4,4.9c0,2.1-0.8,3.9-2.5,5.2
			c-1.6,1.3-3.8,2-6.5,2C729.7,341,728.1,340.7,726.5,340.1z"/>
		<path class="st0" d="M749.2,339c-1.1-1.4-1.6-3.3-1.6-6v-14.9h-3.8v-2.5l4-0.2l0.5-7.2h2.8v7.2h7v2.7h-7V333c0,1.8,0.3,3.2,1,4
			c0.7,0.9,1.8,1.3,3.2,1.3c0.9,0,1.8-0.2,2.8-0.6l0.6,2.3c-1.5,0.6-2.9,0.9-4.3,0.9C752,341,750.3,340.3,749.2,339z"/>
		<path class="st0" d="M764.4,315.4h2.7l0.4,3.9h0.1c2.7-3,5.4-4.5,8.2-4.5c1.8,0,3.3,0.4,4.4,1.2c1.1,0.8,1.9,2.1,2.5,3.8
			c1.5-1.7,2.9-2.9,4.3-3.8c1.4-0.8,2.8-1.3,4.3-1.3c2.5,0,4.4,0.8,5.6,2.4c1.2,1.6,1.8,4,1.8,7.3v15.9h-3.4V325
			c0-2.5-0.4-4.3-1.3-5.5c-0.8-1.2-2.2-1.8-3.9-1.8c-2.1,0-4.3,1.4-6.8,4.3v18.4h-3.4V325c0-2.5-0.4-4.4-1.2-5.5
			c-0.8-1.2-2.1-1.8-3.9-1.8c-1.1,0-2.2,0.3-3.3,1.1c-1.1,0.7-2.3,1.8-3.7,3.2v18.4h-3.4L764.4,315.4L764.4,315.4z"/>
		<path class="st0" d="M811.6,339.3c-1.8-1.1-3.2-2.7-4.2-4.7c-1-2-1.5-4.2-1.5-6.7c0-2.4,0.5-4.6,1.4-6.6c0.9-2,2.3-3.6,4-4.8
			c1.7-1.2,3.6-1.7,5.7-1.7c3.2,0,5.7,1.1,7.3,3.2c1.7,2.1,2.5,4.9,2.5,8.4c0,0.9,0,1.6,0,2.1h-17.5c0.1,3,0.9,5.3,2.6,7.1
			c1.6,1.8,3.7,2.7,6.4,2.7c1.1,0,2.2-0.1,3.2-0.5c1-0.3,2.1-0.8,3.2-1.5l1.1,2.1c-1.2,0.7-2.5,1.3-3.8,1.8
			c-1.3,0.4-2.7,0.7-4.2,0.7C815.5,341,813.4,340.4,811.6,339.3z M822.2,319.7c-1.2-1.5-2.9-2.3-5.1-2.3s-4.1,0.9-5.5,2.6
			c-1.4,1.7-2.2,3.8-2.4,6.3h14.6C823.9,323.4,823.4,321.2,822.2,319.7z"/>
		<path class="st0" d="M833.8,315.5h2.8l0.4,3.7h0.2c1.4-1.4,2.8-2.5,4.2-3.2c1.4-0.7,2.9-1.1,4.5-1.1c2.5,0,4.4,0.8,5.6,2.3
			c1.2,1.6,1.8,4,1.8,7.3v15.9H850V325c0-2.5-0.4-4.4-1.2-5.5s-2.2-1.8-4-1.8c-1.3,0-2.5,0.3-3.6,1c-1,0.6-2.4,1.7-3.9,3.3v18.4
			h-3.5L833.8,315.5L833.8,315.5z"/>
		<path class="st0" d="M864.9,339c-1.1-1.4-1.6-3.3-1.6-6v-14.9h-3.8v-2.5l4-0.2l0.5-7.2h2.8v7.2h7v2.7h-7V333c0,1.8,0.3,3.2,1,4
			c0.7,0.9,1.8,1.3,3.2,1.3c0.9,0,1.8-0.2,2.8-0.6l0.6,2.3c-1.5,0.6-2.9,0.9-4.3,0.9C867.7,341,866,340.3,864.9,339z"/>
		<path class="st0" d="M897.8,340.4h-3.5v-31.1h-10.5v-2.8h24.6v2.8h-10.5L897.8,340.4L897.8,340.4z"/>
		<path class="st0" d="M918.5,339.3c-1.8-1.1-3.2-2.7-4.2-4.7c-1-2-1.5-4.2-1.5-6.7c0-2.4,0.5-4.6,1.4-6.6c0.9-2,2.3-3.6,4-4.8
			c1.7-1.2,3.6-1.7,5.7-1.7c3.2,0,5.7,1.1,7.3,3.2c1.7,2.1,2.5,4.9,2.5,8.4c0,0.9,0,1.6,0,2.1h-17.5c0.1,3,0.9,5.3,2.6,7.1
			c1.6,1.8,3.7,2.7,6.4,2.7c1.1,0,2.2-0.1,3.2-0.5c1-0.3,2.1-0.8,3.2-1.5l1.1,2.1c-1.2,0.7-2.5,1.3-3.8,1.8
			c-1.3,0.4-2.7,0.7-4.2,0.7C922.4,341,920.3,340.4,918.5,339.3z M929.1,319.7c-1.2-1.5-2.9-2.3-5.1-2.3s-4.1,0.9-5.5,2.6
			c-1.4,1.7-2.2,3.8-2.4,6.3h14.6C930.8,323.4,930.3,321.2,929.1,319.7z"/>
		<path class="st0" d="M943.8,339.3c-1.7-1.1-3.1-2.6-4-4.6c-0.9-2-1.4-4.2-1.4-6.7s0.5-4.8,1.5-6.8c1-2,2.4-3.6,4.2-4.7
			c1.8-1.1,3.9-1.7,6.2-1.7c1.3,0,2.5,0.2,3.7,0.7c1.1,0.4,2.3,1.2,3.3,2.1l-1.7,2.1c-0.9-0.8-1.8-1.3-2.6-1.7
			c-0.8-0.4-1.7-0.6-2.6-0.6c-1.7,0-3.2,0.5-4.5,1.4c-1.3,1-2.3,2.2-2.9,3.8c-0.7,1.6-1,3.3-1,5.2c0,1.9,0.3,3.7,1,5.3
			s1.7,2.8,2.9,3.7c1.3,0.9,2.7,1.4,4.4,1.4c2,0,4.1-0.9,6.1-2.6l1.5,2.2c-2.4,2-5,3-7.8,3C947.6,341,945.5,340.4,943.8,339.3z"/>
		<path class="st0" d="M964.2,303.4h3.4v10.1l-0.2,5.7c1.6-1.5,3-2.5,4.3-3.3c1.3-0.7,2.8-1.1,4.5-1.1c2.5,0,4.4,0.8,5.6,2.3
			c1.2,1.6,1.8,4,1.8,7.3v15.9h-3.4V325c0-2.5-0.4-4.4-1.3-5.5s-2.2-1.8-4-1.8c-1.3,0-2.5,0.3-3.6,1c-1,0.6-2.4,1.7-3.9,3.3v18.4
			h-3.4L964.2,303.4L964.2,303.4z"/>
		<path class="st0" d="M992.6,315.5h2.8l0.4,3.7h0.2c1.4-1.4,2.8-2.5,4.2-3.2c1.4-0.7,2.9-1.1,4.5-1.1c2.5,0,4.4,0.8,5.6,2.3
			c1.2,1.6,1.8,4,1.8,7.3v15.9h-3.4V325c0-2.5-0.4-4.4-1.2-5.5s-2.2-1.8-4-1.8c-1.3,0-2.5,0.3-3.6,1c-1,0.6-2.4,1.7-3.9,3.3v18.4
			h-3.5L992.6,315.5L992.6,315.5z"/>
		<path class="st0" d="M1025,339.3c-1.7-1.1-3.1-2.7-4.1-4.7c-1-2-1.5-4.2-1.5-6.7c0-2.5,0.5-4.8,1.5-6.8c1-2,2.3-3.5,4-4.7
			c1.7-1.1,3.7-1.7,5.9-1.7c2.2,0,4.2,0.6,5.9,1.7c1.7,1.1,3.1,2.7,4.1,4.7c1,2,1.5,4.3,1.5,6.8c0,2.5-0.5,4.7-1.5,6.7
			c-1,2-2.4,3.5-4.1,4.7c-1.7,1.1-3.7,1.7-5.9,1.7C1028.6,341,1026.7,340.4,1025,339.3z M1035,337c1.2-0.9,2.2-2.1,2.8-3.7
			c0.7-1.6,1-3.3,1-5.3c0-2.1-0.3-3.9-1-5.5c-0.7-1.6-1.6-2.8-2.8-3.7c-1.2-0.9-2.6-1.3-4.2-1.3c-1.5,0-2.9,0.4-4.1,1.3
			c-1.2,0.9-2.2,2.1-2.9,3.7s-1,3.4-1,5.4c0,2,0.3,3.7,1,5.3c0.7,1.6,1.6,2.8,2.9,3.7c1.2,0.9,2.6,1.3,4.1,1.3
			C1032.4,338.3,1033.8,337.9,1035,337z"/>
		<path class="st0" d="M1050.8,339.8c-0.7-0.8-1-2.1-1-3.9v-32.3h3.4v32.7c0,0.7,0.1,1.2,0.4,1.6c0.2,0.4,0.6,0.6,1,0.6
			c0.1,0,0.3,0,0.8-0.1l0.4,2.5c-0.4,0.2-1.1,0.3-2,0.3C1052.5,341,1051.4,340.6,1050.8,339.8z"/>
		<path class="st0" d="M1066.7,339.3c-1.7-1.1-3.1-2.7-4.1-4.7c-1-2-1.5-4.2-1.5-6.7c0-2.5,0.5-4.8,1.5-6.8c1-2,2.3-3.5,4-4.7
			c1.7-1.1,3.7-1.7,5.9-1.7c2.2,0,4.2,0.6,5.9,1.7c1.7,1.1,3.1,2.7,4.1,4.7c1,2,1.5,4.3,1.5,6.8c0,2.5-0.5,4.7-1.5,6.7
			c-1,2-2.4,3.5-4.1,4.7c-1.7,1.1-3.7,1.7-5.9,1.7C1070.4,341,1068.4,340.4,1066.7,339.3z M1076.7,337c1.2-0.9,2.2-2.1,2.8-3.7
			c0.7-1.6,1-3.3,1-5.3c0-2.1-0.3-3.9-1-5.5c-0.7-1.6-1.6-2.8-2.8-3.7c-1.2-0.9-2.6-1.3-4.2-1.3c-1.5,0-2.9,0.4-4.1,1.3
			c-1.2,0.9-2.2,2.1-2.9,3.7c-0.7,1.6-1,3.4-1,5.4c0,2,0.3,3.7,1,5.3c0.7,1.6,1.6,2.8,2.9,3.7c1.2,0.9,2.6,1.3,4.1,1.3
			C1074.1,338.3,1075.5,337.9,1076.7,337z"/>
		<path class="st0" d="M1092.4,350.4c-1.9-1.1-2.9-2.8-2.9-4.9c0-1,0.3-2,0.9-2.9c0.6-1,1.6-1.9,2.8-2.8v-0.3
			c-0.7-0.4-1.3-1-1.6-1.7c-0.4-0.8-0.6-1.6-0.6-2.5c0-1,0.3-1.9,0.8-2.8c0.6-0.9,1.2-1.5,1.9-2v-0.3c-1-0.8-1.8-1.8-2.4-2.9
			c-0.6-1.1-0.9-2.4-0.9-3.8c0-1.7,0.4-3.2,1.2-4.6c0.8-1.3,1.9-2.4,3.3-3.1c1.4-0.7,3-1.1,4.8-1.1c1.4,0,2.6,0.2,3.5,0.6h8.6v2.5
			h-5.9c0.8,0.6,1.5,1.5,2,2.5c0.5,1,0.7,2.1,0.7,3.3c0,1.7-0.4,3.2-1.2,4.5c-0.8,1.3-1.9,2.3-3.3,3c-1.4,0.7-2.9,1.1-4.5,1.1
			c-1.3,0-2.6-0.3-3.9-1.1c-0.6,0.5-1.1,1-1.5,1.6c-0.3,0.5-0.5,1.2-0.5,1.9c0,1.1,0.4,1.9,1.2,2.5c0.8,0.5,2,0.8,3.7,0.8h5
			c3,0,5.1,0.5,6.5,1.4c1.4,0.9,2.1,2.4,2.1,4.3c0,1.7-0.6,3.2-1.8,4.5c-1.2,1.3-2.7,2.3-4.6,2.9c-1.9,0.7-3.9,1-6.1,1
			C1096.8,352.1,1094.3,351.6,1092.4,350.4z M1104.5,349.2c1.3-0.5,2.4-1.2,3.2-2c0.8-0.9,1.2-1.9,1.2-3c0-1.2-0.4-2.1-1.3-2.7
			c-0.9-0.6-2.3-0.8-4.2-0.8h-4.6c-1.3,0-2.4-0.2-3.3-0.5c-1,0.6-1.7,1.4-2.2,2.2c-0.5,0.8-0.7,1.7-0.7,2.6c0,1.6,0.7,2.8,2.1,3.7
			c1.4,0.9,3.3,1.3,5.8,1.3C1101.8,350,1103.2,349.7,1104.5,349.2z M1104,328.2c1.1-1.2,1.6-2.8,1.6-4.7c0-1.9-0.5-3.5-1.6-4.7
			c-1.1-1.2-2.5-1.8-4.2-1.8c-1.7,0-3.2,0.6-4.2,1.8c-1.1,1.2-1.6,2.8-1.6,4.7c0,1.9,0.6,3.4,1.7,4.7c1.1,1.3,2.5,1.9,4.2,1.9
			C1101.5,330.1,1102.9,329.5,1104,328.2z"/>
		<path class="st0" d="M1117.7,308.8c-0.5-0.4-0.7-1-0.7-1.7c0-0.7,0.2-1.3,0.7-1.8c0.5-0.4,1.1-0.6,1.9-0.6s1.4,0.2,1.9,0.7
			c0.5,0.4,0.7,1,0.7,1.7c0,0.7-0.3,1.2-0.8,1.7c-0.5,0.4-1.1,0.7-1.9,0.7C1118.9,309.4,1118.2,309.2,1117.7,308.8z M1117.8,340.4
			v-24.9h3.4v24.9H1117.8z"/>
		<path class="st0" d="M1134.4,339.3c-1.8-1.1-3.2-2.7-4.2-4.7c-1-2-1.5-4.2-1.5-6.7c0-2.4,0.5-4.6,1.4-6.6c0.9-2,2.3-3.6,4-4.8
			c1.7-1.2,3.6-1.7,5.7-1.7c3.2,0,5.7,1.1,7.3,3.2c1.7,2.1,2.5,4.9,2.5,8.4c0,0.9,0,1.6,0,2.1h-17.5c0.1,3,0.9,5.3,2.6,7.1
			c1.6,1.8,3.7,2.7,6.4,2.7c1.1,0,2.2-0.1,3.2-0.5c1-0.3,2.1-0.8,3.2-1.5l1.1,2.1c-1.2,0.7-2.5,1.3-3.8,1.8
			c-1.3,0.4-2.7,0.7-4.2,0.7C1138.3,341,1136.2,340.4,1134.4,339.3z M1145,319.7c-1.2-1.5-2.9-2.3-5.1-2.3c-2.2,0-4.1,0.9-5.5,2.6
			c-1.4,1.7-2.2,3.8-2.4,6.3h14.6C1146.7,323.4,1146.2,321.2,1145,319.7z"/>
		<path class="st0" d="M1158.1,340.1c-1.6-0.6-3-1.4-4.3-2.4l1.7-2.2c1.2,1,2.4,1.7,3.6,2.2c1.2,0.5,2.5,0.7,4,0.7
			c1.6,0,3-0.4,4-1.2c1-0.8,1.5-1.9,1.5-3.3c0-1.3-0.6-2.4-1.7-3.3c-0.9-0.6-2.2-1.2-4.1-1.8c-2.7-0.9-4.7-1.9-5.9-3
			c-1.2-1.1-1.8-2.5-1.8-4.1c0-2,0.8-3.7,2.3-5c1.5-1.3,3.5-1.9,6-1.9c1.3,0,2.6,0.2,3.9,0.7c1.3,0.5,2.5,1.1,3.5,1.9l-1.6,2.1
			c-1-0.8-2-1.3-2.9-1.7c-0.9-0.3-1.9-0.5-2.9-0.5c-1.5,0-2.7,0.4-3.7,1.1c-0.9,0.8-1.4,1.8-1.4,3c0,0.8,0.2,1.4,0.7,2
			c0.4,0.5,1,1,1.7,1.3c0.7,0.3,1.6,0.7,2.9,1.2l1,0.4c1.1,0.4,2.1,0.8,2.9,1.1c0.8,0.4,1.5,0.8,2.1,1.3c1.6,1.3,2.4,2.9,2.4,4.9
			c0,2.1-0.8,3.9-2.5,5.2c-1.6,1.3-3.8,2-6.5,2C1161.3,341,1159.8,340.7,1158.1,340.1z"/>
	</g>
	<g>
		<path class="st0" d="M656.8,254.8c0,3-1,5.5-3.1,7.6c-2.1,2.1-4.6,3.1-7.6,3.1c-3,0-5.5-1-7.6-3.1c-2.1-2.1-3.1-4.6-3.1-7.6v-78.7
			c0-3,1-5.5,3.1-7.6c2.1-2.1,4.6-3.1,7.6-3.1c3,0,5.5,1,7.6,3.1l39.3,39.3l21,21v-52.8c0-3,1-5.5,3.1-7.6c2.1-2.1,4.6-3.1,7.6-3.1
			c3,0,5.5,1,7.6,3.1s3.1,4.6,3.1,7.6v78.7c0,3-1,5.5-3.1,7.6c-2.1,2.1-4.6,3.1-7.6,3.1c-3,0-5.5-1-7.6-3.1l-39.3-39.3l-21-21V254.8
			z"/>
		<path class="st0" d="M832.1,165.4c3,0,5.5,1,7.6,3.1c2.1,2.1,3.1,4.6,3.1,7.6c0,3-1,5.5-3.1,7.6c-2.1,2.1-4.6,3.1-7.6,3.1h-39.3
			c-7.9,0-14.7,2.8-20.3,8.4c-5.6,5.6-8.4,12.3-8.4,20.3c0,7.9,2.8,14.7,8.4,20.3c5.6,5.6,12.3,8.4,20.3,8.4h39.3c3,0,5.5,1,7.6,3.1
			c2.1,2.1,3.1,4.6,3.1,7.6c0,3-1,5.5-3.1,7.6c-2.1,2.1-4.6,3.1-7.6,3.1h-39.3c-13.8,0-25.6-4.9-35.4-14.7
			c-9.8-9.8-14.7-21.6-14.7-35.4s4.9-25.6,14.7-35.4c9.8-9.8,21.6-14.7,35.4-14.7L832.1,165.4L832.1,165.4z M792.7,226.2
			c-3,0-5.5-1-7.6-3.1s-3.1-4.6-3.1-7.6s1-5.5,3.1-7.6s4.6-3.1,7.6-3.1h39.3c3,0,5.5,1,7.6,3.1c2.1,2.1,3.1,4.6,3.1,7.6
			s-1,5.5-3.1,7.6c-2.1,2.1-4.6,3.1-7.6,3.1H792.7z"/>
		<path class="st0" d="M860.7,265.6c-3,0-5.5-1-7.6-3.1c-2.1-2.1-3.1-4.6-3.1-7.6v-39.3c0-3,1-5.5,3.1-7.6s4.6-3.1,7.6-3.1
			c3,0,5.5,1,7.6,3.1c2.1,2.1,3.1,4.6,3.1,7.6v28.6h48.3c2.5,0,4.6-0.9,6.3-2.6c1.7-1.7,2.6-3.9,2.6-6.3c0-2.5-0.9-4.6-2.6-6.3
			c-1.7-1.7-3.9-2.6-6.3-2.6H900c-3,0-5.5-1-7.6-3.1c-2.1-2.1-3.1-4.6-3.1-7.6c0-3,1-5.5,3.1-7.6c2.1-2.1,4.6-3.1,7.6-3.1h19.7
			c2.5,0,4.6-0.9,6.3-2.6c1.7-1.7,2.6-3.9,2.6-6.3c0-2.5-0.9-4.6-2.6-6.3c-1.7-1.7-3.9-2.6-6.3-2.6h-59c-3,0-5.5-1-7.6-3.1
			c-2.1-2.1-3.1-4.6-3.1-7.6c0-3,1-5.5,3.1-7.6s4.6-3.1,7.6-3.1h59c8.4,0,15.6,3,21.5,8.9c5.9,5.9,8.9,13.1,8.9,21.5
			c0,7.5-2.4,14.1-7.2,19.7c4.8,5.6,7.2,12.1,7.2,19.7c0,8.4-3,15.6-8.9,21.5c-5.9,5.9-13.1,8.9-21.5,8.9L860.7,265.6L860.7,265.6z"
			/>
		<path class="st0" d="M1046.7,244.1c3,0,5.5,1,7.6,3.1s3.1,4.6,3.1,7.6c0,3-1,5.5-3.1,7.6s-4.6,3.1-7.6,3.1
			c-13.8,0-25.6-4.9-35.4-14.7c-7.2-7.2-11.7-15.4-13.6-24.7h-19v28.6c0,3-1,5.5-3.1,7.6c-2.1,2.1-4.6,3.1-7.6,3.1
			c-3,0-5.5-1-7.6-3.1c-2.1-2.1-3.1-4.6-3.1-7.6v-78.7c0-3,1-5.5,3.1-7.6c2.1-2.1,4.6-3.1,7.6-3.1c3,0,5.5,1,7.6,3.1
			c2.1,2.1,3.1,4.6,3.1,7.6v28.6h19c1.9-9.3,6.4-17.5,13.6-24.7c9.8-9.8,21.6-14.7,35.4-14.7c3,0,5.5,1,7.6,3.1s3.1,4.6,3.1,7.6
			c0,3-1,5.5-3.1,7.6s-4.6,3.1-7.6,3.1c-7.9,0-14.7,2.8-20.3,8.4c-5.6,5.6-8.4,12.3-8.4,20.3s2.8,14.7,8.4,20.3
			C1032,241.3,1038.8,244.1,1046.7,244.1z"/>
		<path class="st0" d="M1064.6,215.5c0-13.8,4.9-25.6,14.7-35.4c9.8-9.8,21.6-14.7,35.4-14.7c13.8,0,25.6,4.9,35.4,14.7
			c9.8,9.8,14.7,21.6,14.7,35.4v39.3c0,3-1,5.5-3.1,7.6c-2.1,2.1-4.6,3.1-7.6,3.1c-3,0-5.5-1-7.6-3.1c-2.1-2.1-3.1-4.6-3.1-7.6
			v-17.9H1086v17.9c0,3-1,5.5-3.1,7.6c-2.1,2.1-4.6,3.1-7.6,3.1s-5.5-1-7.6-3.1c-2.1-2.1-3.1-4.6-3.1-7.6L1064.6,215.5L1064.6,215.5
			z M1143.2,215.5c0-7.9-2.8-14.7-8.4-20.3c-5.6-5.6-12.3-8.4-20.3-8.4c-7.9,0-14.7,2.8-20.3,8.4s-8.4,12.3-8.4,20.3H1143.2z"/>
	</g>
</g>
<g>
	<path class="st0" d="M462.5,317.7c2.1-2.9,4-5.6,6.4-8.8c9.8,13.4,21.7,24,35.4,33l79.4-79.4c10.9-10.9,10.9-28.6,0-39.5
		L477.1,116.5c-10.5-10.5-27.5-10.5-38.1,0L332.9,222.6c-11.2,11.2-11.2,29.2,0,40.4l82.1,82.1c7.3-7.1,14.6-14.2,21.7-21.4
		c4.7-4.8,8.8-10.1,12.9-15.3c0.8-1,1.4-3.1,0.9-4c-10.5-19.1-8.3-38.2,0-57.3c0.1-0.1,0-0.3-0.1-1.1c-9-6.8-18-13.3-31.1-10.9
		c-13.6,2.6-27.1,1-38.7-7.7c-2.6-2-4.8-4.5-7.6-7.2c3.4-1.9,6.2-3.4,9.1-5c6.6,6,13.3,12.2,24.1,9.7c-11.6-12.5-7.4-26.2-4.8-40.4
		c1.2,0.5,1.8,0.8,2.4,1.1c5.4,2,7.2,4.9,5.9,11.4c-3.6,18.4,8.6,30.8,28.4,30.1c1.8-16.1-6.3-27.8-22.1-31.3
		c0.7-3,1.5-5.9,2.6-10.5c7.1,2.8,13.7,5.3,20.5,8c4.3-17.3,16.2-26.9,34.5-30.3c0.2,6.2-0.3,10.3-6.5,13.3
		c-17,8.3-23.4,22.9-18.6,41.2c1.8,7,5.1,13.7,7.8,20.7c13-8.6,15-27.7,6-51.2c2.4-1.8,5-3.6,7.9-5.8c2.4,4.4,4.6,8.5,6.6,12.2
		c5.6-2.1,11-4.1,16.9-6.3c1.3,3.1,2.4,5.8,3.8,8.9c-16.6,3.6-19.5,16.2-20.4,30c-0.4,6.8-2,12.3-8.5,16.9
		c-13.5,9.5-18.7,28.3-13.7,44c0.7,2.3,2,4.3,3.1,6.5c0.7,0,1.4,0,2.1,0.1c0.7-4,2.2-8.1,2.1-12.1c-0.3-8.8,0.5-17.1,5.9-25.1
		c4.5,9.6,4.9,19.4,3.2,29.2c-2.8,16-11.4,29-22.4,40.4c-8.7,9-17.9,17.4-26.8,26.3l10.6,10.6c9.4-10.6,18.9-21.2,28.3-31.8
		c5.8,4.6,5.8,4.6-0.4,12.3c-5.6,7.1-11.5,13.9-17.8,20.4c-2.3,2.3-3.7,3.7-5,4.3l8.3,8.3c6.5,6.5,17.1,6.5,23.6,0l26.3-26.3
		C483.7,340.7,472.5,330,462.5,317.7z M393.8,210.9c-11.5,2.5-18.5-3.2-18.8-14.9C384.9,192.1,393.3,198.6,393.8,210.9z
		 M450.9,164.5c-0.6-11.8,6.1-17.7,17.8-16.2C470.8,158.8,463.1,166,450.9,164.5z M424,241.1c2.3,8.7-3.7,17.3-13.1,17.9
		c-2.8,0.2-3.7-0.9-3.8-3.5C406.6,246.3,414,239.8,424,241.1z M436.7,186.5c-11.3-4-14.7-12.1-9.5-22.2
		C438.1,165.8,442.7,176.2,436.7,186.5z M480.2,185.2c-3.5-11.3,1.5-18.7,13.2-20.1C498.2,174.7,492.4,183.6,480.2,185.2z
		 M507.7,235.2c-11.5,2.5-18.5-3.2-18.8-14.9C498.9,216.4,507.2,222.9,507.7,235.2z M535.8,233.8c1.9,11.5-4.5,18.7-15.8,18
		C517,241.3,524,233.1,535.8,233.8z M483,249.6c9.9-1.2,16.5,3.7,17.7,12.4c0.6,4.4-1.3,5.3-5,4.9C487,265.9,481.6,258.8,483,249.6z
		 M419.5,268.3c9.9-1.2,16.5,3.7,17.7,12.4c0.6,4.4-1.3,5.3-5,4.9C423.5,284.6,418.1,277.5,419.5,268.3z M477.3,277.8
		c9.2-1.1,18.6-1.7,24.6-10c5.9-8.2,4.3-17.3,2.1-26.8c2.7-1.4,5.5-2.8,8.2-4.2c6.6,9.7,5.7,20.8-3,39.3c8,1.3,14.3-1.4,23.9-10.5
		c2.3,1.8,4.7,3.7,7.7,6.1c-11.1,11.4-22.3,19.1-38.8,14.9c-8.7-2.2-17.8-1.9-26.8,2.8C476,285.3,476.7,281.6,477.3,277.8z
		 M461.3,374.5c-1.7,1.4-5.7,0.2-8.8,0.2c8.5-10.1,16.2-19.3,24.4-29c1.3,1.1,3,2.6,5,4.4C476.4,359.6,469.4,367.6,461.3,374.5z"/>
</g>
<g>
	<g>
		<path class="st0" d="M-268.7,292.8c2.9-4,5.5-7.7,8.7-12.1c13.5,18.4,29.8,32.9,48.5,45.3l108.8-108.8c14.9-14.9,14.9-39.2,0-54.1
			l-146-146c-14.4-14.4-37.8-14.4-52.2,0l-145.4,145.4c-15.3,15.3-15.3,40.1,0,55.4l112.5,112.5c10-9.8,20-19.5,29.7-29.3
			c6.4-6.5,12-13.8,17.7-21c1.1-1.4,1.9-4.3,1.2-5.5c-14.5-26.2-11.3-52.3,0-78.5c0.1-0.2,0-0.5-0.2-1.6
			c-12.3-9.3-24.6-18.3-42.6-14.9c-18.7,3.5-37.1,1.4-53-10.6c-3.6-2.7-6.6-6.2-10.4-9.8c4.7-2.6,8.4-4.6,12.5-6.8
			c9.1,8.3,18.2,16.7,33.1,13.3c-15.9-17.2-10.2-35.9-6.6-55.4c1.7,0.7,2.5,1.2,3.3,1.5c7.4,2.8,9.8,6.8,8.1,15.6
			c-4.9,25.2,11.8,42.2,38.9,41.3c2.5-22-8.7-38.1-30.3-42.9c1-4.1,2-8.1,3.6-14.3c9.7,3.8,18.7,7.3,28.2,11
			c5.9-23.7,22.2-36.9,47.3-41.6c0.2,8.5-0.4,14.1-8.9,18.2c-23.3,11.4-32.1,31.4-25.5,56.5c2.5,9.6,7,18.8,10.7,28.4
			c17.9-11.8,20.6-38,8.2-70.2c3.3-2.4,6.8-5,10.8-7.9c3.2,6,6.3,11.6,9.1,16.8c7.7-2.9,15.1-5.6,23.1-8.6c1.8,4.3,3.4,7.9,5.2,12.2
			c-22.8,4.9-26.7,22.2-27.9,41.2c-0.6,9.4-2.8,16.9-11.6,23.1c-18.5,13.1-25.7,38.7-18.7,60.3c1,3.1,2.8,5.9,4.2,8.9
			c1,0,1.9,0.1,2.9,0.1c1-5.5,3-11.1,2.8-16.6c-0.4-12,0.7-23.4,8.1-34.4c6.2,13.1,6.7,26.5,4.3,40c-3.9,21.9-15.6,39.8-30.7,55.4
			c-11.9,12.3-24.6,23.9-36.7,36.1l14.5,14.5c12.9-14.5,25.8-29,38.8-43.6c8,6.4,7.9,6.3-0.5,16.9c-7.7,9.7-15.8,19-24.4,27.9
			c-3.1,3.2-5.1,5.1-6.8,5.9l11.3,11.3c8.9,8.9,23.4,8.9,32.4,0l36-36C-239.7,324.4-255.1,309.7-268.7,292.8z M-363,146.5
			c-15.8,3.4-25.3-4.3-25.8-20.5C-375.1,120.7-363.7,129.6-363,146.5z M-284.7,82.8c-0.8-16.1,8.3-24.3,24.3-22.2
			C-257.3,75-267.9,84.9-284.7,82.8z M-321.5,187.8c3.1,11.9-5,23.7-18,24.6c-3.9,0.2-5-1.2-5.2-4.8
			C-345.3,194.9-335.2,186.1-321.5,187.8z M-304.2,112.9c-15.5-5.4-20.1-16.6-13-30.4C-302.2,84.6-295.9,98.8-304.2,112.9z
			 M-244.5,111.2c-4.8-15.4,2.1-25.6,18.1-27.5C-219.9,96.9-227.7,109-244.5,111.2z M-206.8,179.7c-15.8,3.4-25.3-4.3-25.8-20.5
			C-218.9,154-207.5,162.8-206.8,179.7z M-168.2,177.9c2.7,15.8-6.2,25.6-21.6,24.7C-194,188.1-184.5,176.9-168.2,177.9z
			 M-240.6,199.5c13.5-1.7,22.6,5.1,24.3,16.9c0.8,6-1.7,7.2-6.8,6.7C-235.2,221.9-242.6,212.1-240.6,199.5z M-327.7,225.1
			c13.5-1.7,22.6,5.1,24.3,16.9c0.8,6-1.7,7.2-6.8,6.7C-322.2,247.5-329.6,237.7-327.7,225.1z M-248.4,238.1
			c12.6-1.5,25.5-2.3,33.7-13.8c8.1-11.3,5.9-23.8,2.9-36.7c3.7-1.9,7.5-3.8,11.3-5.8c9.1,13.3,7.9,28.5-4.1,53.9
			c11,1.8,19.6-1.9,32.8-14.4c3.2,2.5,6.5,5.1,10.6,8.3c-15.3,15.6-30.6,26.2-53.2,20.4c-11.9-3-24.4-2.5-36.7,3.9
			C-250.2,248.4-249.3,243.4-248.4,238.1z M-270.4,370.7c-2.3,2-7.8,0.3-12.1,0.3c11.6-13.8,22.2-26.5,33.4-39.7
			c1.8,1.6,4.1,3.6,6.9,6.1C-249.7,350.2-259.2,361.2-270.4,370.7z"/>
	</g>
</g>
<g>
	<g>
		<path class="st1" d="M15.1,374.9h-1.7v-16.1h1.7V374.9z"/>
		<path class="st1" d="M19.7,363.1h1.3l0.2,1.7h0.1c0.7-0.7,1.3-1.2,2-1.5c0.7-0.4,1.4-0.5,2.2-0.5c1.2,0,2.1,0.4,2.7,1.1
			c0.6,0.7,0.9,1.9,0.9,3.5v7.6h-1.6v-7.3c0-1.2-0.2-2.1-0.6-2.6s-1-0.8-1.9-0.8c-0.6,0-1.2,0.2-1.7,0.5c-0.5,0.3-1.1,0.8-1.9,1.6
			v8.8h-1.7V363.1z"/>
		<path class="st1" d="M31.7,363.1h1.6l2.4,6.9l1.3,3.7h0c0-0.1,0.1-0.3,0.2-0.6c0.1-0.5,0.3-1,0.5-1.6c0.2-0.6,0.4-1.1,0.5-1.5
			l2.4-6.9h1.6L38,374.9h-2L31.7,363.1z"/>
		<path class="st1" d="M46.7,374.4c-0.9-0.5-1.5-1.3-2-2.2c-0.5-0.9-0.7-2-0.7-3.2c0-1.1,0.2-2.2,0.7-3.1c0.4-1,1.1-1.7,1.9-2.3
			c0.8-0.6,1.7-0.8,2.7-0.8c1.5,0,2.7,0.5,3.5,1.5c0.8,1,1.2,2.3,1.2,4c0,0.4,0,0.8,0,1h-8.3c0,1.4,0.4,2.5,1.2,3.4
			c0.8,0.9,1.8,1.3,3,1.3c0.5,0,1-0.1,1.5-0.2c0.5-0.1,1-0.4,1.5-0.7l0.5,1c-0.6,0.4-1.2,0.6-1.8,0.8c-0.6,0.2-1.3,0.3-2,0.3
			C48.6,375.2,47.6,374.9,46.7,374.4z M51.8,365.1c-0.6-0.7-1.4-1.1-2.4-1.1c-1.1,0-1.9,0.4-2.6,1.2c-0.7,0.8-1.1,1.8-1.2,3h7
			C52.6,366.8,52.3,365.8,51.8,365.1z"/>
		<path class="st1" d="M58,374.8c-0.8-0.3-1.5-0.7-2.1-1.2l0.8-1c0.6,0.5,1.2,0.8,1.7,1c0.6,0.2,1.2,0.4,1.9,0.4
			c0.8,0,1.4-0.2,1.9-0.6c0.5-0.4,0.7-0.9,0.7-1.6c0-0.6-0.3-1.2-0.8-1.6c-0.4-0.3-1.1-0.6-1.9-0.9c-1.3-0.4-2.2-0.9-2.8-1.4
			c-0.6-0.5-0.9-1.2-0.9-1.9c0-1,0.4-1.8,1.1-2.4c0.7-0.6,1.7-0.9,2.9-0.9c0.6,0,1.3,0.1,1.9,0.3c0.6,0.2,1.2,0.5,1.6,0.9l-0.7,1
			c-0.5-0.4-1-0.6-1.4-0.8c-0.4-0.2-0.9-0.3-1.4-0.3c-0.7,0-1.3,0.2-1.8,0.5c-0.4,0.4-0.7,0.8-0.7,1.4c0,0.4,0.1,0.7,0.3,0.9
			c0.2,0.3,0.5,0.5,0.8,0.6c0.3,0.2,0.8,0.4,1.4,0.6l0.5,0.2c0.5,0.2,1,0.4,1.4,0.5c0.4,0.2,0.7,0.4,1,0.6c0.8,0.6,1.2,1.4,1.2,2.3
			c0,1-0.4,1.8-1.2,2.5c-0.8,0.6-1.8,1-3.1,1C59.5,375.2,58.8,375.1,58,374.8z"/>
		<path class="st1" d="M68.9,374.2c-0.5-0.6-0.8-1.6-0.8-2.8v-7.1h-1.8v-1.2l1.9-0.1l0.2-3.4h1.3v3.4h3.3v1.3h-3.3v7.1
			c0,0.9,0.2,1.5,0.5,1.9c0.3,0.4,0.8,0.6,1.5,0.6c0.4,0,0.9-0.1,1.3-0.3l0.3,1.1c-0.7,0.3-1.4,0.4-2,0.4
			C70.2,375.2,69.4,374.9,68.9,374.2z"/>
		<path class="st1" d="M76.1,363h1.3l0.2,1.8h0.1c1.3-1.4,2.6-2.1,3.9-2.1c0.9,0,1.6,0.2,2.1,0.6c0.5,0.4,0.9,1,1.2,1.8
			c0.7-0.8,1.4-1.4,2-1.8s1.3-0.6,2-0.6c1.2,0,2.1,0.4,2.7,1.1c0.6,0.7,0.9,1.9,0.9,3.5v7.6h-1.6v-7.3c0-1.2-0.2-2.1-0.6-2.6
			s-1-0.9-1.9-0.9c-1,0-2.1,0.7-3.2,2v8.8h-1.6v-7.3c0-1.2-0.2-2.1-0.6-2.6c-0.4-0.6-1-0.8-1.9-0.8c-0.5,0-1,0.2-1.6,0.5
			c-0.5,0.3-1.1,0.9-1.7,1.5v8.8h-1.6L76.1,363L76.1,363z"/>
		<path class="st1" d="M98.6,374.4c-0.9-0.5-1.5-1.3-2-2.2c-0.5-0.9-0.7-2-0.7-3.2c0-1.1,0.2-2.2,0.7-3.1c0.4-1,1.1-1.7,1.9-2.3
			c0.8-0.6,1.7-0.8,2.7-0.8c1.5,0,2.7,0.5,3.5,1.5c0.8,1,1.2,2.3,1.2,4c0,0.4,0,0.8,0,1h-8.3c0,1.4,0.4,2.5,1.2,3.4
			c0.8,0.9,1.8,1.3,3,1.3c0.5,0,1-0.1,1.5-0.2c0.5-0.1,1-0.4,1.5-0.7l0.5,1c-0.6,0.4-1.2,0.6-1.8,0.8c-0.6,0.2-1.3,0.3-2,0.3
			C100.4,375.2,99.4,374.9,98.6,374.4z M103.6,365.1c-0.6-0.7-1.4-1.1-2.4-1.1c-1.1,0-1.9,0.4-2.6,1.2c-0.7,0.8-1.1,1.8-1.2,3h7
			C104.4,366.8,104.2,365.8,103.6,365.1z"/>
		<path class="st1" d="M109.1,363.1h1.3l0.2,1.7h0.1c0.7-0.7,1.3-1.2,2-1.5c0.7-0.4,1.4-0.5,2.2-0.5c1.2,0,2.1,0.4,2.7,1.1
			c0.6,0.7,0.9,1.9,0.9,3.5v7.6h-1.6v-7.3c0-1.2-0.2-2.1-0.6-2.6s-1-0.8-1.9-0.8c-0.6,0-1.2,0.2-1.7,0.5c-0.5,0.3-1.1,0.8-1.9,1.6
			v8.8h-1.7L109.1,363.1L109.1,363.1z"/>
		<path class="st1" d="M123.9,374.2c-0.5-0.6-0.8-1.6-0.8-2.8v-7.1h-1.8v-1.2l1.9-0.1l0.2-3.4h1.3v3.4h3.3v1.3h-3.3v7.1
			c0,0.9,0.2,1.5,0.5,1.9c0.3,0.4,0.8,0.6,1.5,0.6c0.4,0,0.9-0.1,1.3-0.3l0.3,1.1c-0.7,0.3-1.4,0.4-2,0.4
			C125.2,375.2,124.4,374.9,123.9,374.2z"/>
		<path class="st1" d="M139.6,374.9h-1.7v-14.8h-5v-1.3h11.7v1.3h-5L139.6,374.9L139.6,374.9z"/>
		<path class="st1" d="M149.4,374.4c-0.9-0.5-1.5-1.3-2-2.2c-0.5-0.9-0.7-2-0.7-3.2c0-1.1,0.2-2.2,0.7-3.1c0.4-1,1.1-1.7,1.9-2.3
			c0.8-0.6,1.7-0.8,2.7-0.8c1.5,0,2.7,0.5,3.5,1.5c0.8,1,1.2,2.3,1.2,4c0,0.4,0,0.8,0,1h-8.3c0,1.4,0.4,2.5,1.2,3.4
			c0.8,0.9,1.8,1.3,3,1.3c0.5,0,1-0.1,1.5-0.2c0.5-0.1,1-0.4,1.5-0.7l0.5,1c-0.6,0.4-1.2,0.6-1.8,0.8c-0.6,0.2-1.3,0.3-2,0.3
			C151.3,375.2,150.3,374.9,149.4,374.4z M154.5,365.1c-0.6-0.7-1.4-1.1-2.4-1.1s-1.9,0.4-2.6,1.2c-0.7,0.8-1.1,1.8-1.2,3h7
			C155.3,366.8,155,365.8,154.5,365.1z"/>
		<path class="st1" d="M161.4,374.4c-0.8-0.5-1.5-1.3-1.9-2.2c-0.4-0.9-0.7-2-0.7-3.2s0.2-2.3,0.7-3.2c0.5-1,1.1-1.7,2-2.2
			s1.9-0.8,3-0.8c0.6,0,1.2,0.1,1.8,0.3c0.5,0.2,1.1,0.6,1.6,1l-0.8,1c-0.4-0.4-0.8-0.6-1.2-0.8c-0.4-0.2-0.8-0.3-1.2-0.3
			c-0.8,0-1.5,0.2-2.1,0.7c-0.6,0.5-1.1,1.1-1.4,1.8c-0.3,0.7-0.5,1.6-0.5,2.5c0,0.9,0.2,1.8,0.5,2.5s0.8,1.3,1.4,1.8
			c0.6,0.4,1.3,0.6,2.1,0.6c1,0,1.9-0.4,2.9-1.2l0.7,1.1c-1.1,1-2.4,1.5-3.7,1.5C163.3,375.2,162.3,374.9,161.4,374.4z"/>
		<path class="st1" d="M171.2,357.3h1.6v4.8l-0.1,2.7c0.7-0.7,1.4-1.2,2.1-1.6c0.6-0.3,1.4-0.5,2.2-0.5c1.2,0,2.1,0.4,2.7,1.1
			c0.6,0.7,0.9,1.9,0.9,3.5v7.6h-1.6v-7.3c0-1.2-0.2-2.1-0.6-2.6s-1-0.8-1.9-0.8c-0.6,0-1.2,0.2-1.7,0.5c-0.5,0.3-1.1,0.8-1.9,1.6
			v8.8h-1.6L171.2,357.3L171.2,357.3z"/>
		<path class="st1" d="M184.7,363.1h1.3l0.2,1.7h0.1c0.7-0.7,1.3-1.2,2-1.5c0.7-0.4,1.4-0.5,2.2-0.5c1.2,0,2.1,0.4,2.7,1.1
			c0.6,0.7,0.9,1.9,0.9,3.5v7.6h-1.6v-7.3c0-1.2-0.2-2.1-0.6-2.6s-1-0.8-1.9-0.8c-0.6,0-1.2,0.2-1.7,0.5c-0.5,0.3-1.1,0.8-1.9,1.6
			v8.8h-1.7L184.7,363.1L184.7,363.1z"/>
		<path class="st1" d="M200.1,374.4c-0.8-0.5-1.5-1.3-1.9-2.2c-0.5-0.9-0.7-2-0.7-3.2c0-1.2,0.2-2.3,0.7-3.2
			c0.5-0.9,1.1-1.7,1.9-2.2c0.8-0.5,1.8-0.8,2.8-0.8c1,0,2,0.3,2.8,0.8c0.8,0.5,1.5,1.3,1.9,2.2s0.7,2,0.7,3.2
			c0,1.2-0.2,2.2-0.7,3.2c-0.5,0.9-1.1,1.7-1.9,2.2c-0.8,0.5-1.8,0.8-2.8,0.8C201.8,375.2,200.9,374.9,200.1,374.4z M204.9,373.3
			c0.6-0.4,1-1,1.4-1.7c0.3-0.7,0.5-1.6,0.5-2.5c0-1-0.2-1.9-0.5-2.6c-0.3-0.7-0.8-1.3-1.4-1.8c-0.6-0.4-1.2-0.6-2-0.6
			c-0.7,0-1.4,0.2-1.9,0.6c-0.6,0.4-1,1-1.4,1.8c-0.3,0.8-0.5,1.6-0.5,2.6c0,0.9,0.2,1.8,0.5,2.5c0.3,0.7,0.8,1.3,1.4,1.7
			c0.6,0.4,1.2,0.6,1.9,0.6C203.6,373.9,204.3,373.7,204.9,373.3z"/>
		<path class="st1" d="M212.4,374.6c-0.3-0.4-0.5-1-0.5-1.9v-15.4h1.6v15.5c0,0.3,0.1,0.6,0.2,0.8c0.1,0.2,0.3,0.3,0.5,0.3
			c0,0,0.1,0,0.4,0l0.2,1.2c-0.2,0.1-0.5,0.1-0.9,0.1C213.2,375.2,212.7,375,212.4,374.6z"/>
		<path class="st1" d="M220,374.4c-0.8-0.5-1.5-1.3-1.9-2.2c-0.5-0.9-0.7-2-0.7-3.2c0-1.2,0.2-2.3,0.7-3.2c0.5-0.9,1.1-1.7,1.9-2.2
			c0.8-0.5,1.8-0.8,2.8-0.8c1,0,2,0.3,2.8,0.8c0.8,0.5,1.5,1.3,1.9,2.2c0.5,1,0.7,2,0.7,3.2c0,1.2-0.2,2.2-0.7,3.2
			c-0.5,0.9-1.1,1.7-1.9,2.2c-0.8,0.5-1.8,0.8-2.8,0.8C221.7,375.2,220.8,374.9,220,374.4z M224.7,373.3c0.6-0.4,1-1,1.4-1.7
			c0.3-0.7,0.5-1.6,0.5-2.5c0-1-0.2-1.9-0.5-2.6c-0.3-0.7-0.8-1.3-1.4-1.8c-0.6-0.4-1.2-0.6-2-0.6c-0.7,0-1.4,0.2-1.9,0.6
			c-0.6,0.4-1,1-1.4,1.8s-0.5,1.6-0.5,2.6c0,0.9,0.2,1.8,0.5,2.5c0.3,0.7,0.8,1.3,1.4,1.7c0.6,0.4,1.2,0.6,1.9,0.6
			C223.5,373.9,224.2,373.7,224.7,373.3z"/>
		<path class="st1" d="M232.2,379.7c-0.9-0.5-1.4-1.3-1.4-2.3c0-0.5,0.1-0.9,0.4-1.4s0.7-0.9,1.3-1.3v-0.1c-0.3-0.2-0.6-0.5-0.8-0.8
			c-0.2-0.4-0.3-0.8-0.3-1.2c0-0.5,0.1-0.9,0.4-1.3c0.3-0.4,0.6-0.7,0.9-0.9v-0.1c-0.5-0.4-0.8-0.8-1.1-1.4s-0.4-1.1-0.4-1.8
			c0-0.8,0.2-1.5,0.6-2.2c0.4-0.6,0.9-1.1,1.6-1.5c0.7-0.4,1.4-0.5,2.3-0.5c0.7,0,1.2,0.1,1.7,0.3h4.1v1.2h-2.8
			c0.4,0.3,0.7,0.7,0.9,1.2c0.2,0.5,0.3,1,0.3,1.6c0,0.8-0.2,1.5-0.6,2.2c-0.4,0.6-0.9,1.1-1.6,1.4c-0.7,0.3-1.4,0.5-2.2,0.5
			c-0.6,0-1.2-0.2-1.9-0.5c-0.3,0.2-0.5,0.5-0.7,0.8c-0.2,0.3-0.3,0.6-0.3,0.9c0,0.5,0.2,0.9,0.6,1.2c0.4,0.3,1,0.4,1.8,0.4h2.4
			c1.4,0,2.5,0.2,3.1,0.7c0.7,0.4,1,1.1,1,2.1c0,0.8-0.3,1.5-0.8,2.2c-0.6,0.6-1.3,1.1-2.2,1.4c-0.9,0.3-1.9,0.5-2.9,0.5
			C234.3,380.5,233.1,380.2,232.2,379.7z M237.9,379.1c0.6-0.2,1.1-0.6,1.5-1c0.4-0.4,0.6-0.9,0.6-1.4c0-0.6-0.2-1-0.6-1.3
			c-0.4-0.3-1.1-0.4-2-0.4h-2.2c-0.6,0-1.1-0.1-1.6-0.2c-0.5,0.3-0.8,0.7-1,1.1c-0.2,0.4-0.4,0.8-0.4,1.2c0,0.7,0.3,1.3,1,1.7
			c0.7,0.4,1.6,0.6,2.7,0.6C236.7,379.5,237.3,379.4,237.9,379.1z M237.7,369.1c0.5-0.6,0.8-1.3,0.8-2.2c0-0.9-0.3-1.6-0.8-2.2
			c-0.5-0.6-1.2-0.9-2-0.9c-0.8,0-1.5,0.3-2,0.9c-0.5,0.6-0.8,1.3-0.8,2.2c0,0.9,0.3,1.6,0.8,2.2c0.5,0.6,1.2,0.9,2,0.9
			C236.5,370,237.2,369.7,237.7,369.1z"/>
		<path class="st1" d="M244.3,359.9c-0.2-0.2-0.3-0.5-0.3-0.8c0-0.4,0.1-0.6,0.3-0.8c0.2-0.2,0.5-0.3,0.9-0.3s0.7,0.1,0.9,0.3
			s0.4,0.5,0.4,0.8c0,0.3-0.1,0.6-0.4,0.8c-0.2,0.2-0.5,0.3-0.9,0.3C244.8,360.2,244.5,360.1,244.3,359.9z M244.3,374.9v-11.8h1.6
			v11.8H244.3z"/>
		<path class="st1" d="M252.2,374.4c-0.9-0.5-1.5-1.3-2-2.2c-0.5-0.9-0.7-2-0.7-3.2c0-1.1,0.2-2.2,0.7-3.1c0.4-1,1.1-1.7,1.9-2.3
			c0.8-0.6,1.7-0.8,2.7-0.8c1.5,0,2.7,0.5,3.5,1.5c0.8,1,1.2,2.3,1.2,4c0,0.4,0,0.8,0,1h-8.3c0,1.4,0.4,2.5,1.2,3.4
			c0.8,0.9,1.8,1.3,3,1.3c0.5,0,1-0.1,1.5-0.2c0.5-0.1,1-0.4,1.5-0.7l0.5,1c-0.6,0.4-1.2,0.6-1.8,0.8c-0.6,0.2-1.3,0.3-2,0.3
			C254,375.2,253,374.9,252.2,374.4z M257.2,365.1c-0.6-0.7-1.4-1.1-2.4-1.1c-1.1,0-1.9,0.4-2.6,1.2c-0.7,0.8-1.1,1.8-1.2,3h7
			C258,366.8,257.8,365.8,257.2,365.1z"/>
		<path class="st1" d="M263.5,374.8c-0.8-0.3-1.5-0.7-2.1-1.2l0.8-1c0.6,0.5,1.2,0.8,1.7,1c0.6,0.2,1.2,0.4,1.9,0.4
			c0.8,0,1.4-0.2,1.9-0.6c0.5-0.4,0.7-0.9,0.7-1.6c0-0.6-0.3-1.2-0.8-1.6c-0.4-0.3-1.1-0.6-1.9-0.9c-1.3-0.4-2.2-0.9-2.8-1.4
			c-0.6-0.5-0.9-1.2-0.9-1.9c0-1,0.4-1.8,1.1-2.4c0.7-0.6,1.7-0.9,2.9-0.9c0.6,0,1.3,0.1,1.9,0.3c0.6,0.2,1.2,0.5,1.6,0.9l-0.7,1
			c-0.5-0.4-1-0.6-1.4-0.8c-0.4-0.2-0.9-0.3-1.4-0.3c-0.7,0-1.3,0.2-1.8,0.5c-0.4,0.4-0.7,0.8-0.7,1.4c0,0.4,0.1,0.7,0.3,0.9
			c0.2,0.3,0.5,0.5,0.8,0.6c0.3,0.2,0.8,0.4,1.4,0.6l0.5,0.2c0.5,0.2,1,0.4,1.4,0.5c0.4,0.2,0.7,0.4,1,0.6c0.8,0.6,1.2,1.4,1.2,2.3
			c0,1-0.4,1.8-1.2,2.5c-0.8,0.6-1.8,1-3.1,1C265,375.2,264.2,375.1,263.5,374.8z"/>
	</g>
	<g>
		<path class="st1" d="M24.9,334.2c0,1.4-0.5,2.6-1.5,3.6c-1,1-2.2,1.5-3.6,1.5s-2.6-0.5-3.6-1.5c-1-1-1.5-2.2-1.5-3.6v-37.4
			c0-1.4,0.5-2.6,1.5-3.6c1-1,2.2-1.5,3.6-1.5s2.6,0.5,3.6,1.5l18.7,18.7l10,10v-25.1c0-1.4,0.5-2.6,1.5-3.6c1-1,2.2-1.5,3.6-1.5
			c1.4,0,2.6,0.5,3.6,1.5c1,1,1.5,2.2,1.5,3.6v37.4c0,1.4-0.5,2.6-1.5,3.6c-1,1-2.2,1.5-3.6,1.5c-1.4,0-2.6-0.5-3.6-1.5l-18.7-18.7
			l-10-10L24.9,334.2z"/>
		<path class="st1" d="M108.3,291.6c1.4,0,2.6,0.5,3.6,1.5s1.5,2.2,1.5,3.6c0,1.4-0.5,2.6-1.5,3.6c-1,1-2.2,1.5-3.6,1.5H89.6
			c-3.8,0-7,1.3-9.6,4c-2.7,2.7-4,5.9-4,9.6c0,3.8,1.3,7,4,9.6c2.7,2.7,5.9,4,9.6,4h18.7c1.4,0,2.6,0.5,3.6,1.5s1.5,2.2,1.5,3.6
			c0,1.4-0.5,2.6-1.5,3.6c-1,1-2.2,1.5-3.6,1.5H89.6c-6.6,0-12.2-2.3-16.8-7c-4.6-4.6-7-10.3-7-16.8c0-6.6,2.3-12.2,7-16.8
			c4.6-4.6,10.3-7,16.8-7L108.3,291.6L108.3,291.6z M89.6,320.6c-1.4,0-2.6-0.5-3.6-1.5c-1-1-1.5-2.2-1.5-3.6s0.5-2.6,1.5-3.6
			c1-1,2.2-1.5,3.6-1.5h18.7c1.4,0,2.6,0.5,3.6,1.5s1.5,2.2,1.5,3.6s-0.5,2.6-1.5,3.6c-1,1-2.2,1.5-3.6,1.5H89.6z"/>
		<path class="st1" d="M121.9,339.3c-1.4,0-2.6-0.5-3.6-1.5c-1-1-1.5-2.2-1.5-3.6v-18.7c0-1.4,0.5-2.6,1.5-3.6c1-1,2.2-1.5,3.6-1.5
			c1.4,0,2.6,0.5,3.6,1.5c1,1,1.5,2.2,1.5,3.6v13.6h23c1.2,0,2.2-0.4,3-1.2c0.8-0.8,1.2-1.8,1.2-3c0-1.2-0.4-2.2-1.2-3
			c-0.8-0.8-1.8-1.2-3-1.2h-9.4c-1.4,0-2.6-0.5-3.6-1.5s-1.5-2.2-1.5-3.6s0.5-2.6,1.5-3.6s2.2-1.5,3.6-1.5h9.4c1.2,0,2.2-0.4,3-1.2
			c0.8-0.8,1.2-1.8,1.2-3c0-1.2-0.4-2.2-1.2-3c-0.8-0.8-1.8-1.2-3-1.2h-28.1c-1.4,0-2.6-0.5-3.6-1.5c-1-1-1.5-2.2-1.5-3.6
			c0-1.4,0.5-2.6,1.5-3.6c1-1,2.2-1.5,3.6-1.5H150c4,0,7.4,1.4,10.2,4.2c2.8,2.8,4.2,6.2,4.2,10.2c0,3.6-1.1,6.7-3.4,9.4
			c2.3,2.7,3.4,5.8,3.4,9.4c0,4-1.4,7.4-4.2,10.2c-2.8,2.8-6.2,4.2-10.2,4.2L121.9,339.3L121.9,339.3z"/>
		<path class="st1" d="M210.4,329.1c1.4,0,2.6,0.5,3.6,1.5s1.5,2.2,1.5,3.6s-0.5,2.6-1.5,3.6c-1,1-2.2,1.5-3.6,1.5
			c-6.6,0-12.2-2.3-16.8-7c-3.4-3.4-5.6-7.3-6.5-11.7h-9v13.6c0,1.4-0.5,2.6-1.5,3.6c-1,1-2.2,1.5-3.6,1.5c-1.4,0-2.6-0.5-3.6-1.5
			c-1-1-1.5-2.2-1.5-3.6v-37.4c0-1.4,0.5-2.6,1.5-3.6c1-1,2.2-1.5,3.6-1.5c1.4,0,2.6,0.5,3.6,1.5c1,1,1.5,2.2,1.5,3.6v13.6h9
			c0.9-4.4,3.1-8.3,6.5-11.7c4.6-4.6,10.3-7,16.8-7c1.4,0,2.6,0.5,3.6,1.5c1,1,1.5,2.2,1.5,3.6c0,1.4-0.5,2.6-1.5,3.6
			s-2.2,1.5-3.6,1.5c-3.8,0-7,1.3-9.6,4c-2.7,2.7-4,5.9-4,9.6s1.3,7,4,9.6C203.4,327.8,206.7,329.1,210.4,329.1z"/>
		<path class="st1" d="M218.9,315.5c0-6.6,2.3-12.2,7-16.8c4.6-4.6,10.3-7,16.8-7c6.6,0,12.2,2.3,16.8,7c4.6,4.6,7,10.3,7,16.8v18.7
			c0,1.4-0.5,2.6-1.5,3.6c-1,1-2.2,1.5-3.6,1.5c-1.4,0-2.6-0.5-3.6-1.5s-1.5-2.2-1.5-3.6v-8.5h-27.2v8.5c0,1.4-0.5,2.6-1.5,3.6
			c-1,1-2.2,1.5-3.6,1.5c-1.4,0-2.6-0.5-3.6-1.5s-1.5-2.2-1.5-3.6L218.9,315.5L218.9,315.5z M256.4,315.5c0-3.8-1.3-7-4-9.6
			c-2.7-2.7-5.9-4-9.6-4c-3.8,0-7,1.3-9.6,4c-2.7,2.7-4,5.9-4,9.6H256.4z"/>
	</g>
	<g>
		<path class="st0" d="M145.8,204c1.9-2.6,3.6-5,5.7-7.9c8.8,12,19.4,21.5,31.6,29.6l71-71c9.7-9.7,9.7-25.6,0-35.3l-95.3-95.3
			c-9.4-9.4-24.6-9.4-34,0L29.9,119c-10,10-10,26.1,0,36.1l73.4,73.4c6.5-6.4,13-12.7,19.4-19.1c4.2-4.2,7.8-9,11.6-13.7
			c0.7-0.9,1.3-2.8,0.8-3.6c-9.4-17.1-7.4-34.1,0-51.2c0.1-0.1,0-0.3-0.1-1c-8-6.1-16.1-11.9-27.8-9.7C95,132.4,83,131,72.6,123.2
			c-2.3-1.8-4.3-4-6.8-6.4c3.1-1.7,5.5-3,8.2-4.5c5.9,5.4,11.9,10.9,21.6,8.7c-10.4-11.2-6.7-23.4-4.3-36.1c1.1,0.5,1.6,0.8,2.1,1
			c4.8,1.8,6.4,4.4,5.3,10.2c-3.2,16.4,7.7,27.6,25.4,27c1.6-14.4-5.7-24.8-19.8-28c0.7-2.6,1.3-5.3,2.3-9.4
			c6.4,2.5,12.2,4.8,18.4,7.2c3.8-15.5,14.5-24.1,30.8-27.1c0.2,5.5-0.3,9.2-5.8,11.9c-15.2,7.4-20.9,20.5-16.6,36.8
			c1.6,6.3,4.5,12.2,7,18.5c11.7-7.7,13.4-24.8,5.4-45.8c2.2-1.6,4.4-3.2,7-5.2c2.1,3.9,4.1,7.6,5.9,11c5.1-1.9,9.8-3.7,15.1-5.6
			c1.2,2.8,2.2,5.2,3.4,8c-14.9,3.2-17.4,14.5-18.2,26.9c-0.4,6.1-1.8,11-7.6,15.1c-12,8.5-16.7,25.3-12.2,39.3
			c0.6,2,1.8,3.9,2.8,5.8c0.6,0,1.2,0,1.9,0.1c0.7-3.6,1.9-7.3,1.8-10.9c-0.2-7.8,0.5-15.3,5.3-22.4c4,8.6,4.4,17.3,2.8,26.1
			c-2.5,14.3-10.2,26-20.1,36.2c-7.8,8-16,15.6-23.9,23.5l9.5,9.5c8.4-9.4,16.9-18.9,25.3-28.4c5.2,4.1,5.1,4.1-0.3,11
			c-5,6.3-10.3,12.4-15.9,18.2c-2,2.1-3.3,3.3-4.4,3.8l7.4,7.4c5.8,5.8,15.3,5.8,21.1,0l23.5-23.5C164.7,224.6,154.7,215,145.8,204z
			 M84.3,108.5c-10.3,2.2-16.5-2.8-16.8-13.4C76.4,91.7,83.9,97.5,84.3,108.5z M135.4,67c-0.5-10.5,5.4-15.8,15.9-14.5
			C153.2,61.9,146.3,68.3,135.4,67z M111.4,135.5c2,7.8-3.3,15.5-11.8,16c-2.5,0.2-3.3-0.8-3.4-3.1
			C95.8,140.1,102.4,134.3,111.4,135.5z M122.7,86.6c-10.1-3.5-13.1-10.8-8.5-19.9C124,68.1,128.1,77.4,122.7,86.6z M161.6,85.5
			c-3.1-10.1,1.4-16.7,11.8-17.9C177.7,76.1,172.6,84.1,161.6,85.5z M186.2,130.2c-10.3,2.2-16.5-2.8-16.8-13.4
			C178.3,113.4,185.8,119.2,186.2,130.2z M211.4,129c1.7,10.3-4,16.7-14.1,16.1C194.5,135.7,200.8,128.4,211.4,129z M164.1,143.1
			c8.8-1.1,14.8,3.3,15.8,11.1c0.5,3.9-1.1,4.7-4.5,4.4C167.7,157.7,162.9,151.3,164.1,143.1z M107.3,159.8
			c8.8-1.1,14.8,3.3,15.8,11.1c0.5,3.9-1.1,4.7-4.5,4.4C110.9,174.4,106.1,168,107.3,159.8z M159,168.3c8.2-1,16.6-1.5,22-9
			c5.3-7.4,3.9-15.5,1.9-24c2.4-1.2,4.9-2.5,7.3-3.8c5.9,8.7,5.1,18.6-2.6,35.2c7.2,1.2,12.8-1.2,21.4-9.4c2.1,1.6,4.2,3.3,6.9,5.4
			c-10,10.2-20,17.1-34.7,13.3c-7.8-2-15.9-1.7-23.9,2.5C157.9,175,158.4,171.7,159,168.3z M144.7,254.8c-1.5,1.3-5.1,0.2-7.9,0.2
			c7.6-9,14.5-17.3,21.8-25.9c1.2,1,2.7,2.3,4.5,3.9C158.2,241.4,152,248.6,144.7,254.8z"/>
	</g>
</g>
</svg>
