<?xml version="1.0" standalone="no"?>
<!DOCTYPE svg PUBLIC "-//W3C//DTD SVG 20010904//EN"
 "http://www.w3.org/TR/2001/REC-SVG-20010904/DTD/svg10.dtd">
<svg version="1.0" xmlns="http://www.w3.org/2000/svg"
 width="300.000000pt" height="169.000000pt" viewBox="0 0 300.000000 169.000000"
 preserveAspectRatio="xMidYMid meet">
<metadata>
Created by potrace 1.10, written by Peter Selinger 2001-2011
</metadata>
<g transform="translate(0.000000,169.000000) scale(0.100000,-0.100000)"
fill="#000000" stroke="none">
<path d="M985 1429 c4 -13 15 -32 26 -41 26 -22 8 -32 -26 -14 -16 8 -22 17
-16 21 13 8 -4 45 -21 45 -6 0 -5 -6 3 -17 12 -15 12 -16 -4 -10 -11 4 -20 1
-23 -8 -5 -13 -10 -13 -34 0 -37 19 -51 19 -26 0 27 -21 16 -27 -17 -10 -26
13 -27 13 -16 -8 9 -18 9 -20 -2 -9 -14 13 -59 17 -59 5 0 -5 5 -15 10 -23 8
-13 10 -13 10 2 0 12 5 15 15 11 13 -5 13 -8 -5 -20 -11 -8 -24 -12 -29 -8
-13 7 -22 -10 -27 -48 -15 -128 -15 -127 -39 -127 -25 0 -35 -17 -35 -62 0
-38 29 -140 39 -134 10 7 7 -36 -4 -55 -9 -13 -84 -48 -107 -49 -4 0 -29 -10
-55 -21 -27 -12 -60 -21 -75 -21 -15 0 -30 -4 -33 -9 -4 -5 -18 -9 -33 -10
-15 0 -40 -9 -57 -20 -16 -10 -41 -23 -54 -29 -28 -13 -161 -145 -161 -161 0
-6 -7 -17 -15 -25 -8 -9 -15 -24 -15 -34 0 -10 -23 -45 -50 -76 -46 -53 -50
-61 -50 -108 l1 -51 18 45 c11 25 22 53 25 63 3 9 21 27 41 38 21 13 35 29 35
40 0 55 144 239 186 239 4 0 29 13 56 30 26 16 58 30 70 30 28 0 140 30 153
41 5 5 19 9 31 9 13 0 26 4 29 10 3 5 15 15 27 21 17 9 19 8 14 -9 -4 -12 -2
-24 5 -28 7 -4 9 -3 5 4 -3 6 1 17 9 25 21 22 31 54 39 122 4 44 3 54 -4 37
-20 -47 -43 -10 -57 90 -6 45 16 61 47 33 19 -17 20 -17 21 1 1 10 0 29 -1 41
-1 12 4 32 11 45 7 13 12 35 11 49 -4 47 28 63 126 65 167 3 222 -35 222 -155
0 -58 -1 -61 -19 -51 -25 13 -42 13 -18 -1 22 -13 22 -47 0 -79 l-16 -25 25
23 c49 45 64 174 29 248 -21 42 -66 92 -114 126 l-29 21 7 -24z"/>
<path d="M1739 1234 c-54 -29 -88 -94 -48 -94 10 0 19 -5 19 -10 0 -6 -11 -8
-25 -4 -25 6 -26 5 -22 -32 3 -21 13 -43 23 -51 17 -13 19 -11 25 22 7 42 14
50 52 59 19 4 26 3 22 -4 -3 -5 1 -10 9 -10 27 0 28 20 2 32 -20 9 -23 14 -15
25 9 11 8 12 -5 7 -9 -3 -16 -16 -16 -28 -1 -19 -2 -19 -11 -3 -5 9 -7 22 -3
29 4 7 3 8 -5 4 -6 -4 -9 -16 -6 -27 4 -10 2 -19 -4 -19 -5 0 -12 9 -16 19 -6
20 38 75 50 63 12 -12 34 -9 39 5 13 34 -18 42 -65 17z"/>
<path d="M1821 1226 c-9 -11 -6 -13 17 -11 21 2 29 -2 29 -14 0 -20 -17 -42
-27 -36 -5 3 -11 1 -15 -5 -8 -13 21 -13 45 0 16 9 18 8 13 -6 -3 -8 -15 -20
-27 -24 -21 -9 -21 -9 0 -9 25 -1 44 -19 44 -43 0 -29 36 -5 48 32 9 25 8 31
-8 40 -27 14 -32 12 -25 -10 4 -11 2 -20 -4 -20 -17 0 -13 38 4 48 21 11 10
36 -23 52 -40 20 -59 21 -71 6z"/>
<path d="M835 1215 l30 -13 -35 -2 c-34 -1 -87 -18 -63 -19 7 -1 10 -8 7 -16
-4 -9 0 -15 10 -15 9 0 13 6 10 15 -8 19 34 29 66 16 l25 -10 -28 0 c-22 -1
-28 -5 -25 -18 2 -13 13 -18 38 -18 30 0 35 4 36 23 1 15 -6 27 -20 33 -16 7
-13 9 17 5 20 -3 37 -1 37 4 0 17 -38 30 -87 30 l-48 -1 30 -14z"/>
<path d="M970 1195 c0 -6 21 -12 47 -13 25 -1 56 -4 67 -7 21 -6 21 -6 2 9
-11 9 -28 17 -38 17 -60 4 -78 3 -78 -6z"/>
<path d="M1294 1189 c-41 -12 -64 -39 -75 -91 -5 -24 -14 -53 -21 -65 -9 -18
-7 -32 6 -68 13 -33 15 -49 7 -59 -7 -9 -7 -16 0 -23 11 -11 14 -136 4 -152
-5 -10 -86 25 -96 42 -4 5 -11 7 -17 3 -5 -3 -16 1 -23 10 -10 13 -10 17 1 24
27 17 -1 24 -28 8 -19 -11 -33 -14 -42 -8 -18 12 -30 13 -30 3 0 -11 55 -43
110 -66 25 -10 55 -28 68 -39 19 -19 22 -19 22 -5 0 9 4 17 10 17 5 0 7 -15 5
-32 l-5 -33 15 33 c8 17 20 32 26 32 6 0 8 9 4 20 -4 11 -4 34 0 50 6 27 8 28
32 17 l26 -12 -24 -6 c-18 -5 -19 -8 -6 -9 9 -1 22 -4 27 -5 6 -1 20 -4 33 -5
19 -2 18 -3 -8 -11 -21 -6 -12 -7 30 -3 33 3 68 8 78 11 30 8 -27 33 -76 33
-28 0 -50 8 -74 26 -31 23 -33 29 -33 84 0 32 -4 60 -10 62 -14 5 -25 68 -11
68 6 0 12 -6 13 -12 0 -7 4 10 7 37 4 32 10 49 19 48 6 -2 12 1 12 7 0 21 39
31 80 20 51 -14 72 -35 70 -74 -3 -49 -1 -56 15 -50 8 4 15 1 15 -4 0 -20 -23
-61 -31 -57 -4 3 -10 -3 -13 -13 -7 -20 -65 -52 -94 -52 -10 0 -23 5 -30 12
-26 26 -19 1 9 -30 l29 -32 35 37 c34 37 36 37 34 13 -3 -47 1 -60 16 -60 18
0 19 4 3 30 -14 22 0 57 21 53 6 -2 11 6 11 16 0 11 5 23 11 27 7 4 9 32 6 78
-7 88 -21 130 -43 122 -8 -3 -12 -2 -9 3 7 13 -35 41 -60 40 -11 0 -34 -5 -51
-10z"/>
<path d="M917 1154 c9 -24 -17 -72 -40 -76 -42 -7 -68 4 -88 35 -10 18 -19 29
-19 25 0 -12 23 -58 29 -58 3 0 13 -4 21 -10 12 -7 12 -12 -4 -29 -14 -16 -16
-27 -9 -63 9 -44 26 -54 31 -19 3 17 7 18 35 9 18 -6 60 -11 94 -12 68 -1 79
7 63 49 -8 22 -7 25 13 25 18 0 16 3 -13 18 -35 17 -66 64 -55 81 3 5 20 -3
37 -19 17 -16 36 -26 42 -23 6 4 6 8 -2 11 -21 7 -13 20 11 16 12 -2 4 5 -18
16 l-40 19 30 2 c30 2 30 2 -5 8 -19 4 -41 3 -47 -2 -8 -6 -24 -5 -42 1 -25 9
-29 8 -24 -4z m43 -43 c0 -10 13 -35 30 -57 33 -44 38 -64 14 -64 -9 0 -12 -5
-8 -11 5 -9 -11 -11 -58 -7 -78 6 -94 14 -77 34 9 11 8 14 -5 14 -9 0 -16 5
-16 10 0 6 4 10 10 10 19 0 80 69 80 90 0 19 2 20 15 10 8 -7 15 -20 15 -29z"/>
<path d="M899 1036 c10 -11 8 -16 -6 -24 -16 -9 -15 -11 7 -16 49 -11 69 -11
72 -1 2 6 -7 11 -20 13 -12 2 -27 12 -32 23 -6 10 -16 19 -22 19 -7 0 -7 -5 1
-14z"/>
<path d="M2365 1113 c-72 -14 -112 -59 -100 -113 5 -21 2 -31 -11 -38 -15 -8
-14 -10 5 -15 23 -6 36 18 25 47 -3 9 1 27 10 41 15 23 22 25 100 25 106 0
114 -8 112 -105 -1 -54 -8 -83 -29 -127 -15 -31 -27 -65 -27 -76 0 -16 -9 -20
-51 -25 -44 -5 -54 -3 -68 14 -9 12 -25 20 -35 18 -15 -3 -12 -8 14 -28 29
-21 81 -30 117 -19 6 2 13 -1 15 -7 1 -5 -10 -13 -27 -17 l-30 -7 29 2 c24 2
34 10 51 43 12 22 19 46 17 52 -2 7 3 12 10 12 24 0 29 -12 10 -26 -9 -7 -14
-15 -11 -18 3 -4 18 3 33 15 25 20 26 23 12 44 -15 23 -15 53 0 77 11 17 12
48 2 42 -4 -3 -8 -1 -8 5 0 5 4 12 9 16 14 8 1 107 -17 128 -8 9 -23 17 -32
17 -9 0 -20 4 -25 9 -12 10 -73 19 -100 14z"/>
<path d="M1821 1096 c-14 -17 11 -41 34 -32 17 6 20 26 4 26 -5 0 -7 5 -4 10
9 15 -21 12 -34 -4z"/>
<path d="M2050 1098 c0 -4 -8 -8 -17 -8 -15 0 -16 -2 -3 -10 8 -5 10 -10 5
-10 -6 0 -16 5 -22 11 -8 8 -13 8 -17 0 -4 -6 -4 -11 0 -11 4 0 0 -6 -8 -12
-11 -8 -20 -40 -27 -86 -5 -41 -12 -77 -16 -80 -3 -3 -15 -1 -25 6 -26 16 -25
16 -26 -17 -1 -16 -5 -37 -9 -47 -4 -11 -9 -27 -10 -37 -1 -10 -6 -22 -12 -28
-14 -14 -63 6 -63 26 0 8 -16 35 -35 61 -26 34 -35 55 -35 85 0 22 -4 38 -9
35 -5 -3 -19 9 -31 27 l-22 32 7 -30 c3 -16 6 -35 7 -42 1 -6 7 -9 13 -6 20 7
25 -36 6 -50 -17 -11 -16 -14 9 -49 15 -21 29 -35 32 -33 2 2 4 -5 5 -15 1
-11 -2 -20 -6 -20 -5 0 -19 -10 -33 -22 -13 -13 -50 -35 -80 -51 -55 -27 -68
-41 -73 -82 -6 -41 -26 -104 -35 -110 -6 -3 -10 -14 -10 -23 0 -9 -7 -30 -15
-46 -8 -15 -15 -35 -15 -44 0 -34 -33 -131 -43 -125 -6 4 -8 -18 -5 -60 4 -66
4 -67 -27 -78 -16 -7 -35 -11 -41 -10 -7 1 -14 -5 -18 -14 -7 -19 -5 -19 49 7
45 22 67 20 47 -4 -6 -7 -10 -16 -9 -20 5 -17 -45 -67 -70 -71 l-28 -4 28 -2
c17 0 27 -7 27 -16 0 -27 18 -16 49 31 25 39 30 56 30 103 -1 79 12 194 23
208 6 7 8 22 5 32 -3 11 1 28 9 38 7 10 14 30 14 45 0 14 12 41 26 58 l27 31
16 -28 c32 -52 34 -66 10 -60 -20 5 -20 5 -3 -14 21 -23 11 -37 -13 -18 -11 9
-14 10 -9 2 4 -8 2 -13 -5 -13 -6 0 -9 -8 -6 -20 6 -24 -8 -37 -17 -15 -3 8
-11 15 -18 15 -9 0 -9 -3 0 -12 7 -7 12 -23 12 -36 0 -15 7 -26 19 -29 11 -3
22 -17 26 -32 11 -54 13 -91 4 -96 -13 -9 -11 -25 4 -25 8 0 18 -24 25 -60 7
-34 15 -67 18 -74 3 -9 -12 -17 -52 -25 -71 -14 -97 -14 -89 -1 8 13 -4 50
-16 50 -5 0 -9 -16 -9 -35 0 -35 0 -35 44 -35 25 0 57 5 73 11 19 7 29 7 31 0
5 -15 32 -14 34 2 1 6 2 25 2 42 1 18 6 30 15 30 8 0 15 12 17 28 1 16 14 39
28 51 14 12 26 27 26 34 0 7 6 12 13 12 12 1 64 76 60 89 -1 3 -5 15 -9 26 -7
18 -6 19 9 6 22 -18 35 -6 20 18 -15 24 12 68 31 51 7 -5 35 -13 61 -17 47 -6
96 -38 72 -46 -7 -2 -1 -9 12 -16 13 -7 21 -9 17 -3 -3 5 7 12 23 15 31 7 71
42 71 64 0 21 34 -18 50 -57 16 -41 50 -100 56 -100 3 0 0 8 -5 18 -15 28 0
40 46 39 40 -2 62 7 51 19 -4 3 -16 1 -27 -6 -12 -6 -26 -8 -33 -4 -6 4 1 12
18 20 40 17 2 18 -48 0 -35 -13 -36 -13 -40 13 l-4 27 59 -10 c64 -10 72 -6
82 39 5 20 4 26 -3 16 -7 -10 -15 -11 -33 -2 l-24 12 22 -17 c21 -15 21 -44 0
-44 -6 0 -42 10 -79 21 -50 16 -68 26 -66 38 2 9 6 18 9 21 3 3 -1 16 -8 30
-12 25 -13 25 -13 3 0 -14 -6 -23 -15 -23 -10 0 -15 -10 -15 -30 0 -23 -8 -35
-37 -55 -30 -20 -39 -22 -41 -11 -2 8 -14 21 -26 30 -13 8 -37 35 -53 60 -17
25 -33 42 -37 39 -3 -4 1 -17 9 -29 14 -22 14 -24 -12 -30 -15 -4 -63 1 -107
10 -45 9 -92 18 -105 20 -18 2 -37 22 -72 77 -27 41 -49 84 -49 95 0 27 51 53
107 55 l38 2 -40 6 c-57 9 -27 25 42 23 l53 -1 -6 39 c-7 45 10 56 20 14 6
-23 10 -25 39 -19 18 4 44 20 59 36 17 17 33 26 43 23 12 -5 11 -11 -10 -36
-14 -16 -25 -35 -25 -42 0 -7 -7 -13 -15 -13 -8 0 -15 4 -15 7 0 4 -11 8 -25
8 -32 0 -32 -16 1 -28 55 -21 79 -13 102 34 15 30 20 53 16 74 -6 30 21 143
34 141 4 0 16 -4 27 -9 19 -8 19 -9 -2 -9 -28 -1 -38 -17 -16 -25 9 -4 24 1
35 11 18 16 18 18 2 30 -10 7 -26 13 -36 13 -15 0 -16 3 -6 28 17 40 37 52 87
52 55 0 84 -15 61 -29 -21 -14 -5 -24 19 -12 19 11 20 8 20 -61 -1 -74 -7
-107 -40 -190 -11 -26 -19 -51 -19 -57 0 -16 33 -13 66 4 18 9 23 15 12 15
-20 0 -50 28 -43 40 3 5 14 1 24 -9 10 -10 23 -20 28 -22 20 -8 83 -115 83
-141 0 -26 -1 -27 -55 -21 -36 4 -64 1 -79 -7 -18 -9 -28 -9 -46 0 -12 6 -45
19 -73 27 -49 15 -68 19 -126 22 -16 1 -21 5 -17 16 3 9 0 15 -10 15 -8 0 -12
-4 -9 -10 7 -11 -22 -19 -90 -24 -27 -2 -66 -11 -85 -20 -22 -10 -26 -14 -10
-10 60 15 102 15 153 0 30 -9 62 -13 71 -10 9 3 24 0 33 -7 10 -8 14 -9 10 -2
-9 15 52 15 70 1 7 -6 20 -8 28 -4 8 3 23 -4 34 -15 15 -16 23 -19 38 -10 25
13 89 16 127 6 22 -6 27 -5 21 5 -6 9 -3 10 14 1 11 -7 21 -14 21 -17 0 -3 -6
-2 -12 2 -10 5 -10 4 -1 -6 16 -18 38 -3 22 16 -8 10 -8 14 0 14 17 0 13 56
-4 70 -9 7 -13 20 -10 29 3 11 -12 34 -45 67 -27 27 -50 55 -50 62 0 22 30 26
46 6 15 -18 15 -18 11 3 -3 13 1 24 9 27 16 6 20 76 4 76 -5 0 -14 15 -19 33
-6 23 -10 26 -11 12 -1 -11 -2 -24 -1 -30 1 -5 -9 4 -23 20 -31 37 -32 52 -6
60 11 4 18 11 14 16 -3 6 -12 8 -18 6 -9 -4 -11 3 -8 19 2 13 8 24 13 24 5 0
9 5 9 10 0 6 -7 10 -16 10 -8 0 -13 -4 -9 -9 3 -5 1 -12 -5 -16 -6 -4 -10 6
-11 22 0 15 -3 22 -6 16 -8 -21 -36 -16 -31 5 6 20 5 20 -59 25 -24 2 -43 0
-43 -5z m77 -29 c-15 -24 -37 -25 -30 -1 2 10 13 18 23 19 17 2 18 -1 7 -18z
m113 -200 c0 -21 -42 -80 -54 -76 -11 4 -9 38 3 47 4 3 10 13 14 23 7 19 37
24 37 6z m-524 -445 c16 -7 47 -14 67 -16 20 -1 37 -4 37 -7 0 -16 -75 -129
-83 -124 -6 4 -7 1 -2 -6 7 -12 -24 -96 -32 -87 -3 2 3 18 11 35 18 35 20 45
6 36 -12 -8 -39 -64 -54 -115 -12 -42 -28 -54 -34 -24 -2 9 1 14 6 10 6 -3 2
17 -9 46 -10 29 -19 70 -19 91 0 23 -8 49 -21 67 -15 19 -19 34 -14 47 5 10 7
25 6 33 -2 13 -1 13 8 0 9 -13 14 -11 37 12 27 27 34 27 90 2z"/>
<path d="M1642 411 c-6 -16 -19 -34 -30 -40 -14 -7 -18 -17 -15 -31 6 -24 23
-27 23 -4 0 13 7 11 34 -10 50 -38 56 -32 10 9 -31 27 -36 36 -25 44 8 5 15
21 17 35 4 34 -2 33 -14 -3z"/>
<path d="M1620 262 c0 -5 11 -19 25 -32 30 -28 34 -13 5 18 -22 23 -30 27 -30
14z"/>
<path d="M1755 1089 c-11 -4 -16 -8 -11 -8 5 -1 3 -8 -4 -15 -10 -13 -7 -15
16 -13 17 2 28 9 30 20 3 22 -6 27 -31 16z"/>
<path d="M1482 1068 c3 -7 22 -14 44 -16 l39 -3 -29 16 c-34 18 -59 20 -54 3z"/>
<path d="M1275 1060 c17 -7 17 -9 3 -9 -27 -1 -21 -16 7 -19 19 -1 25 3 25 18
0 15 -6 20 -27 19 -25 0 -26 -1 -8 -9z"/>
<path d="M1342 1058 c-19 -19 3 -46 33 -41 28 6 34 23 8 24 -16 0 -16 1 1 8
18 7 18 8 2 14 -24 9 -30 9 -44 -5z"/>
<path d="M1850 1020 c9 -16 8 -20 -5 -20 -9 0 -13 5 -10 10 4 6 -5 10 -21 10
-22 0 -24 -2 -14 -14 6 -8 21 -17 33 -19 20 -3 20 -4 -5 -11 -33 -10 -61 13
-52 41 5 16 4 16 -10 -2 -23 -27 -16 -38 35 -52 24 -6 37 -12 29 -12 -13 -1
-13 -3 0 -10 8 -6 18 -7 22 -5 12 8 9 -11 -4 -24 -19 -19 -49 -14 -76 11 l-25
22 12 -23 c7 -13 24 -27 38 -33 16 -6 23 -14 19 -24 -3 -8 -1 -15 4 -15 6 0 9
-6 8 -12 -2 -7 4 -13 12 -13 8 0 14 5 13 12 -1 6 6 37 17 69 21 61 27 119 10
109 -6 -3 -13 1 -16 9 -3 9 -10 16 -15 16 -6 0 -5 -9 1 -20z"/>
<path d="M1335 985 c-20 -16 -20 -16 3 -10 12 4 22 2 22 -4 0 -5 -10 -11 -22
-13 -21 -3 -21 -4 4 -9 31 -7 43 10 25 35 -11 15 -14 15 -32 1z"/>
<path d="M2313 973 c-23 -9 -13 -20 15 -17 15 2 19 1 10 -2 -10 -3 -18 -9 -18
-14 0 -5 6 -7 14 -4 8 3 17 0 22 -7 11 -18 10 -78 -1 -84 -6 -3 -5 -7 3 -11 6
-3 10 -9 7 -14 -3 -4 6 -7 20 -6 29 1 33 12 8 19 -10 3 1 5 25 6 39 1 43 3 40
23 -2 12 -9 23 -16 26 -11 3 -12 0 -3 -17 11 -20 9 -21 -26 -20 -36 0 -37 1
-13 11 21 9 22 12 7 15 -15 4 -18 13 -15 45 2 33 -1 43 -17 49 -23 9 -45 10
-62 2z"/>
<path d="M2410 962 c0 -5 6 -16 13 -26 10 -13 20 -16 37 -11 17 6 20 9 9 16
-11 7 -10 9 4 9 10 0 15 5 12 10 -7 12 -75 14 -75 2z"/>
<path d="M2060 920 c0 -24 40 -46 67 -36 16 7 14 10 -12 22 l-30 14 33 -3 c20
-2 31 1 29 7 -2 6 -22 12 -45 14 -37 3 -42 1 -42 -18z"/>
<path d="M880 920 c0 -20 39 -31 63 -18 l22 12 -25 7 c-37 10 -60 10 -60 -1z"/>
<path d="M790 914 c0 -21 43 -66 76 -80 52 -22 97 -18 124 11 13 14 20 28 16
32 -4 4 -11 1 -15 -6 -5 -7 -27 -17 -50 -21 -22 -4 -38 -3 -35 1 3 5 -9 9 -26
9 -21 0 -39 9 -60 33 -16 17 -30 27 -30 21z"/>
<path d="M1993 868 c-22 -28 -22 -36 -1 -59 15 -17 19 -19 15 -6 -7 19 16 23
50 10 15 -6 13 -9 -12 -14 -30 -7 -30 -7 6 -8 45 -1 62 16 46 44 -8 12 -25 21
-47 23 -19 2 -38 8 -41 13 -3 6 -10 5 -16 -3z m84 -43 c5 -4 -3 -5 -17 -2 -14
4 -38 7 -54 7 -23 0 -26 3 -17 14 9 11 18 11 46 2 19 -7 38 -16 42 -21z"/>
<path d="M1130 846 c-34 -12 -34 -13 -12 -25 18 -10 22 -9 22 4 0 8 9 15 20
15 11 0 20 5 20 10 0 12 -6 12 -50 -4z"/>
<path d="M1438 821 c-10 -10 -18 -21 -18 -25 0 -4 7 -1 15 8 9 8 23 12 32 9
10 -4 14 -2 11 7 -7 21 -21 21 -40 1z"/>
<path d="M1533 799 c-6 -6 -9 -28 -7 -48 3 -27 2 -31 -5 -16 -7 15 -9 1 -10
-50 0 -38 -2 -77 -3 -85 -2 -8 2 -16 7 -18 6 -1 13 32 17 75 9 89 14 153 13
153 -1 0 -6 -5 -12 -11z"/>
<path d="M2314 801 c14 -22 68 -43 94 -36 33 8 12 24 -24 17 -13 -2 -36 3 -50
13 -15 9 -23 12 -20 6z"/>
<path d="M770 777 c45 -31 94 -47 139 -47 44 0 61 14 61 49 l-1 26 -17 -28
c-16 -26 -20 -28 -62 -22 -54 8 -63 13 -56 31 4 11 0 11 -20 2 -19 -9 -30 -9
-45 0 -35 22 -34 12 1 -11z"/>
<path d="M493 775 c-13 -5 -23 -13 -23 -18 0 -4 9 -3 19 3 33 17 102 11 169
-16 35 -14 66 -23 68 -21 3 3 -9 10 -26 16 -17 6 -29 14 -26 19 3 5 0 9 -7 10
-7 0 -43 4 -82 9 -44 5 -79 4 -92 -2z"/>
<path d="M420 758 c0 -18 32 -66 72 -110 18 -20 42 -54 53 -75 10 -21 28 -45
39 -54 11 -9 28 -36 38 -60 13 -31 17 -35 13 -15 -12 59 -92 188 -148 240 -15
14 -30 39 -33 56 -6 29 -34 43 -34 18z"/>
<path d="M1263 728 c-20 -9 -22 -16 -16 -56 4 -33 3 -43 -5 -38 -7 4 -13 24
-13 44 -2 34 -2 34 -6 7 -3 -16 -9 -34 -14 -39 -14 -15 -11 -26 6 -26 8 0 15
-7 15 -16 0 -8 -4 -12 -10 -9 -5 3 -10 -3 -10 -15 0 -12 5 -18 10 -15 11 7 14
-8 4 -18 -4 -4 -9 -42 -11 -84 -2 -43 -8 -95 -14 -116 -16 -60 -8 -165 18
-243 12 -39 23 -77 23 -86 0 -10 10 -15 30 -16 17 0 30 2 31 6 5 42 5 52 -2
52 -4 0 -11 -9 -14 -21 -5 -15 -10 -18 -18 -10 -14 14 8 39 47 50 28 8 27 9
-22 10 -46 1 -53 4 -49 19 2 9 -2 29 -9 43 -8 15 -12 47 -9 73 2 30 -1 47 -8
48 -7 1 15 4 48 8 l60 7 -52 1 c-55 2 -64 12 -44 50 5 9 11 52 14 95 3 43 8
81 12 85 3 3 14 1 24 -5 14 -9 30 -9 67 1 30 8 43 15 34 18 -13 6 -13 8 0 17
12 9 12 11 -3 17 -20 7 -22 35 -5 52 9 9 8 12 -5 12 -9 0 -17 8 -17 17 0 15
-2 14 -15 -3 -13 -17 -14 -15 -14 31 0 42 2 47 12 34 10 -14 14 -14 25 -3 7 8
11 14 10 15 -2 0 -10 2 -18 4 -8 1 -26 5 -40 9 -14 3 -35 0 -47 -6z m45 -27
c3 -10 0 -12 -11 -8 -9 3 -18 1 -20 -6 -2 -7 -8 -9 -12 -5 -4 4 -5 14 -1 23 7
19 37 16 44 -4z m-28 -43 c0 -9 3 -8 10 2 12 19 22 8 14 -14 -4 -9 -14 -16
-23 -14 -18 4 -29 38 -12 38 6 0 11 -6 11 -12z m-10 -55 c0 -15 2 -14 15 3 14
18 14 18 14 -11 0 -16 -4 -39 -9 -50 -8 -21 -8 -21 -23 25 -3 8 -6 2 -6 -14
-1 -20 -4 -27 -11 -20 -11 11 -2 84 11 84 5 0 9 -8 9 -17z m80 1 c0 -9 -5 -12
-12 -8 -9 5 -9 2 1 -9 12 -15 11 -17 -3 -17 -9 0 -16 -4 -16 -10 0 -5 7 -10
15 -10 8 0 15 -4 15 -10 0 -5 -12 -10 -26 -10 -22 0 -25 3 -20 23 3 12 6 32 6
45 0 15 6 22 20 22 11 0 20 -7 20 -16z"/>
<path d="M1976 733 c-3 -4 4 -17 16 -30 l21 -23 -54 0 c-48 0 -55 -2 -56 -21
-2 -17 1 -18 13 -9 11 10 14 10 14 1 0 -7 5 -9 10 -6 6 4 8 11 5 16 -4 5 2 8
12 7 38 -3 156 5 126 9 l-33 4 28 25 27 24 -39 -4 c-21 -3 -48 -1 -61 4 -13 5
-26 6 -29 3z"/>
<path d="M2540 730 c0 -5 8 -10 18 -10 14 0 15 -2 2 -10 -12 -8 -11 -10 7 -10
12 0 25 -4 28 -10 3 -5 1 -10 -6 -10 -7 0 -9 -3 -6 -6 4 -4 13 -2 20 5 12 9
17 6 25 -16 6 -16 13 -46 17 -67 4 -22 13 -49 21 -60 8 -11 14 -36 14 -56 0
-19 4 -41 9 -49 6 -9 4 -19 -6 -29 -10 -11 -11 -17 -3 -22 6 -4 14 -26 17 -49
5 -37 4 -41 -16 -41 -11 0 -21 -4 -21 -10 0 -5 9 -10 20 -10 18 0 18 -2 5 -41
-9 -26 -13 -59 -9 -92 5 -42 3 -53 -13 -65 -17 -13 -16 -13 7 -10 24 3 25 5
25 89 1 57 5 92 14 103 28 33 -27 385 -67 430 -15 16 -83 56 -97 56 -3 0 -5
-4 -5 -10z"/>
<path d="M532 685 c37 -39 55 -51 83 -52 19 -2 35 2 35 7 0 6 -17 10 -38 10
-36 0 -79 30 -65 44 4 3 0 6 -7 6 -7 0 -23 8 -34 17 -12 10 0 -5 26 -32z"/>
<path d="M1372 701 c-14 -32 -3 -71 21 -71 8 0 8 -3 -1 -9 -16 -10 -15 -21 4
-42 8 -9 14 -20 13 -25 -3 -20 1 -107 6 -102 3 2 5 40 4 84 -1 166 -2 174 -15
163 -9 -7 -13 -4 -16 11 -3 19 -5 18 -16 -9z"/>
<path d="M660 705 c0 -2 17 -9 38 -16 20 -6 50 -22 65 -35 32 -27 78 -34 58
-10 -7 8 -23 17 -37 20 -13 4 -33 14 -43 23 -16 13 -81 28 -81 18z"/>
<path d="M313 674 c-23 -10 -14 -24 15 -24 15 0 48 -13 73 -28 38 -25 46 -36
58 -83 18 -71 25 -135 16 -157 -5 -13 -10 -8 -20 23 -8 24 -32 56 -57 78 -24
21 -42 42 -41 46 3 10 -66 25 -75 17 -7 -7 -9 -6 60 -49 55 -35 108 -99 108
-131 0 -8 5 -16 11 -18 7 -2 9 -13 4 -27 -4 -12 -9 -20 -13 -17 -7 7 -28 -23
-58 -81 l-22 -45 24 23 c13 12 24 28 24 34 0 7 11 24 24 38 36 39 49 90 43
171 -7 94 -29 163 -67 206 -24 28 -27 29 -14 8 9 -16 12 -28 8 -28 -14 1 -49
30 -46 38 3 9 -38 13 -55 6z"/>
<path d="M1677 650 c-20 -4 -41 -10 -45 -15 -11 -12 79 2 91 14 12 12 10 12
-46 1z"/>
<path d="M1735 625 c-5 -2 -30 -9 -54 -15 -23 -6 -41 -13 -38 -16 7 -7 106 17
113 27 5 9 -2 11 -21 4z"/>
<path d="M2436 621 c-6 -9 -6 -155 0 -149 5 5 14 158 9 158 -2 0 -6 -4 -9 -9z"/>
<path d="M357 590 c19 -21 43 -27 43 -10 0 6 -12 15 -26 20 -35 14 -36 13 -17
-10z"/>
<path d="M175 503 l-40 -28 75 -5 c75 -5 146 -34 180 -74 7 -9 18 -16 24 -16
18 1 -76 82 -111 97 -18 7 -42 13 -53 13 -11 0 -20 5 -20 10 0 6 5 10 10 10 6
0 10 5 10 10 0 18 -35 10 -75 -17z"/>
<path d="M1000 518 c15 -4 4 -5 -30 -3 -40 4 -50 2 -35 -5 15 -7 4 -8 -40 -5
-47 3 -53 2 -30 -5 25 -8 22 -9 -22 -6 -29 2 -50 -1 -47 -5 2 -4 -22 -11 -55
-15 l-59 -6 -4 -77 c-5 -82 -1 -97 37 -135 28 -28 32 -58 10 -76 -22 -18 -22
-180 0 -180 16 0 21 25 7 34 -10 6 -3 76 8 76 4 0 5 11 3 24 -3 14 1 25 10 29
10 4 16 -2 20 -19 2 -14 -1 -24 -7 -24 -6 0 -5 -4 3 -9 8 -5 11 -16 8 -25 -4
-9 -3 -16 2 -16 5 0 7 -11 6 -24 -3 -26 10 -54 20 -44 4 4 0 44 -9 90 -8 46
-17 134 -19 196 -3 107 -3 113 17 117 12 2 80 13 151 25 72 11 140 23 152 26
31 8 36 -18 35 -190 -2 -123 -5 -154 -19 -175 -10 -14 -16 -31 -15 -38 1 -6
-2 -14 -8 -18 -6 -3 -7 0 -4 9 9 24 -29 19 -116 -14 -71 -27 -73 -29 -37 -29
24 -1 48 6 64 19 27 21 43 19 43 -6 0 -20 28 -17 57 6 14 11 32 20 39 20 8 0
14 3 14 8 0 4 5 41 11 82 14 101 13 218 -2 316 l-13 82 -85 -1 c-56 -1 -77 -4
-61 -9z m45 -28 c-8 -13 1 -13 25 2 22 14 39 3 22 -14 -9 -9 -12 -9 -12 1 0 9
-5 7 -16 -4 -11 -11 -20 -13 -26 -7 -10 10 -3 32 8 32 3 0 2 -4 -1 -10z m-39
-14 c24 -18 13 -23 -66 -30 -104 -9 -153 -19 -169 -35 -18 -18 -26 -64 -15
-83 13 -21 12 -48 -2 -48 -18 0 -44 28 -44 48 0 9 -3 33 -6 53 -7 42 13 69 52
69 14 0 23 3 21 8 -3 4 24 6 60 5 35 -1 81 4 101 11 49 18 46 18 68 2z"/>
<path d="M2213 507 c2 -7 12 -13 23 -15 28 -4 64 -24 64 -34 0 -5 -14 -7 -31
-3 -22 5 -29 4 -25 -4 4 -6 16 -11 26 -11 10 0 22 -4 25 -10 10 -16 28 -12 21
5 -11 30 5 14 18 -17 20 -49 18 -110 -4 -160 -18 -42 -18 -79 1 -104 5 -6 5
-15 1 -19 -4 -5 -2 -5 5 -1 8 4 9 15 5 29 -5 12 -7 28 -6 35 1 6 2 17 3 23 0
5 5 8 10 5 5 -3 9 4 10 17 7 135 6 165 -7 203 -8 24 -18 41 -23 38 -5 -3 -23
1 -41 9 -49 22 -80 28 -75 14z"/>
<path d="M120 431 c0 -5 15 -13 33 -16 17 -4 58 -20 89 -36 70 -35 89 -67 98
-164 l7 -70 2 75 c1 57 -3 82 -16 100 -24 34 -62 66 -100 85 -18 9 -35 20 -38
25 -8 13 -75 13 -75 1z"/>
<path d="M1327 415 c4 -16 7 -47 6 -67 0 -21 3 -35 8 -32 14 8 10 77 -6 104
l-15 25 7 -30z"/>
<path d="M148 351 c-27 -9 -48 -18 -48 -21 0 -3 28 -6 63 -5 34 0 76 -4 92 -8
l30 -8 -33 30 c-38 35 -39 35 -104 12z"/>
<path d="M1090 351 c-5 -11 -10 -28 -10 -37 0 -14 -3 -15 -12 -6 -14 14 -48
16 -48 3 0 -5 9 -13 20 -16 20 -6 28 -39 11 -49 -12 -8 -20 -56 -10 -56 5 0 9
12 10 28 0 15 3 21 6 15 2 -7 9 -13 14 -13 6 0 7 5 3 12 -4 6 0 16 8 22 10 7
17 32 19 64 2 29 3 52 2 52 -1 0 -7 -9 -13 -19z"/>
<path d="M1030 352 c-50 -22 -61 -39 -54 -78 4 -22 14 -44 23 -51 20 -15 31
-16 31 -3 0 6 -7 10 -15 10 -8 0 -15 5 -15 10 0 6 9 10 20 10 11 0 20 7 20 15
0 8 -9 15 -20 15 -31 0 -27 48 4 56 14 3 31 2 38 -2 10 -6 10 -4 -1 9 -7 9
-14 17 -15 16 0 0 -8 -3 -16 -7z"/>
<path d="M1950 293 c-25 -60 -32 -137 -18 -201 l8 -32 -35 14 c-19 8 -35 11
-35 6 0 -5 12 -13 28 -16 15 -4 33 -12 40 -17 11 -9 13 2 7 65 -9 94 -2 116
33 120 35 4 40 34 15 83 l-19 36 -24 -58z"/>
<path d="M948 322 c-7 -10 -21 -21 -30 -25 -25 -9 -22 -25 5 -30 l22 -4 -22
-8 c-31 -10 -30 -34 0 -28 23 5 29 26 14 50 -4 7 -1 15 6 20 13 8 31 43 22 43
-2 0 -10 -8 -17 -18z"/>
<path d="M890 323 c-23 -9 -30 -24 -30 -69 0 -49 23 -73 60 -65 14 3 26 11 27
18 2 8 -6 9 -30 2 -17 -5 -33 -9 -34 -9 -2 0 -3 24 -3 53 0 49 2 54 28 64 15
6 20 11 12 11 -8 0 -22 -2 -30 -5z"/>
<path d="M21 292 c-8 -6 12 -8 57 -4 131 9 212 -38 228 -133 l9 -50 3 47 c6
94 -53 139 -192 145 -50 2 -97 0 -105 -5z"/>
<path d="M815 239 c0 -59 8 -76 20 -40 8 26 3 81 -10 91 -7 5 -10 -11 -10 -51z"/>
<path d="M118 260 c104 -37 142 -88 142 -193 1 -50 1 -51 15 -27 17 29 20 9 4
-22 -9 -16 -8 -19 3 -16 21 8 11 96 -17 155 -29 58 -73 96 -130 112 -64 17
-75 11 -17 -9z"/>
<path d="M2122 249 c-18 -12 -31 -23 -29 -25 5 -5 76 30 77 39 0 12 -13 8 -48
-14z"/>
<path d="M25 241 c-14 -6 -7 -9 29 -14 27 -4 58 -7 70 -7 20 1 19 2 -4 15 -27
16 -64 18 -95 6z"/>
<path d="M690 215 c0 -25 4 -35 13 -32 6 2 12 16 12 32 0 16 -6 30 -12 33 -9
2 -13 -8 -13 -33z"/>
<path d="M141 168 c57 -44 77 -74 88 -128 l9 -45 1 39 c1 30 -7 50 -36 88 -21
28 -50 56 -65 64 -44 23 -43 16 3 -18z"/>
<path d="M2001 145 l1 -50 8 40 c5 22 4 44 -1 50 -5 5 -9 -11 -8 -40z"/>
<path d="M45 168 c30 -5 65 -21 88 -39 20 -16 37 -25 37 -20 0 6 -20 24 -44
41 -34 23 -55 30 -88 29 l-43 -1 50 -10z"/>
<path d="M2587 162 c1 -8 3 -20 3 -28 0 -8 6 -11 16 -7 11 4 22 -1 30 -12 19
-26 17 -4 -2 23 -8 12 -21 22 -29 22 -7 0 -15 3 -18 8 -2 4 -2 1 0 -6z"/>
<path d="M693 80 c0 -47 2 -66 4 -42 2 23 2 61 0 85 -2 23 -4 4 -4 -43z"/>
<path d="M18 122 c-38 -8 -15 -17 42 -17 32 -1 57 1 55 3 -7 8 -79 18 -97 14z"/>
<path d="M2335 74 c-9 -30 -16 -57 -14 -58 2 -2 20 5 39 15 29 16 31 19 12 19
-27 0 -30 34 -5 62 14 15 14 18 1 18 -10 0 -22 -20 -33 -56z"/>
<path d="M2600 29 c0 -19 4 -28 11 -24 6 4 8 13 5 21 -3 8 -1 14 5 14 6 0 7 5
4 10 -12 20 -25 9 -25 -21z"/>
<path d="M10 40 c10 -6 9 -9 -1 -13 -8 -2 13 -2 47 0 46 4 69 1 95 -12 29 -16
32 -16 20 -2 -13 17 -37 23 -125 30 -27 3 -43 1 -36 -3z"/>
</g>
</svg>
